<svg width="117" height="65" viewBox="0 0 117 65" fill="none" xmlns="../../../../../../../www.w3.org/2000/svg.html">
<g id="Carlsberg_Group_logo 1" clip-path="url(#clip0_1745_31313)">
<g id="Group">
<path id="Vector" fill-rule="evenodd" clip-rule="evenodd" d="M41.8954 18.5498L41.8879 18.7086L41.8803 18.8635L41.8576 19.0223L41.8274 19.181L41.7896 19.3322L41.7556 19.4758L41.7065 19.627L41.6498 19.7593L41.5855 19.9029L41.5213 20.0352L41.4457 20.1675L41.3625 20.2922L41.2756 20.4131L41.1811 20.5341L41.0866 20.6437L40.9808 20.7495L40.8712 20.8591L40.7654 20.9498L40.6406 21.0443L40.5197 21.1312L40.3987 21.2068L40.2665 21.2862L40.1304 21.3504L39.9943 21.4147L39.8507 21.4752L39.7071 21.5243L39.5559 21.5583L39.4047 21.5923L39.246 21.6226L39.0872 21.6415L38.9285 21.649L38.7698 21.6566H38.6942L38.611 21.649L38.5392 21.6339L38.4674 21.6188L38.3956 21.6037L38.3238 21.581L38.252 21.5583L38.1877 21.5281L38.0517 21.4638L37.9269 21.3845L37.8136 21.2975L37.7077 21.1993L37.6132 21.0897L37.5263 20.9763L37.4507 20.8478L37.3827 20.7193L37.3336 20.5832L37.2958 20.4471L37.2844 20.3715L37.2769 20.3035L37.2693 20.2241V20.0163L37.2844 19.9029L37.3071 19.7933L37.3373 19.6988L37.3676 19.6156L37.4054 19.5401L37.4394 19.472L37.4734 19.4153L37.549 19.2906L37.617 19.1697L37.6473 19.1054L37.6624 19.0298L37.6775 18.9467L37.6851 18.856L37.6775 18.7917L37.6699 18.7161L37.6473 18.6557L37.6246 18.5914L37.5943 18.5271L37.5566 18.4667L37.5188 18.41L37.4734 18.3608L37.4205 18.3193L37.3638 18.2739L37.3071 18.2399L37.2504 18.2097L37.1862 18.187L37.1106 18.1643L37.0501 18.1568L36.9745 18.1492L36.8536 18.1568L36.7402 18.1719L36.6306 18.2021L36.5247 18.2399L36.4227 18.289L36.3282 18.3457L36.2375 18.4138L36.1581 18.4818L36.0825 18.5687L36.0221 18.6557L35.9616 18.7464L35.9125 18.8484L35.8747 18.9542L35.8482 19.0638L35.8331 19.1772L35.8255 19.2982V27.3372L35.8331 27.3939L35.8482 27.4392L35.8709 27.477L35.9011 27.5148L35.9351 27.5488L35.9767 27.5791L36.0221 27.5942L36.0599 27.6093L36.8536 27.8436L36.8989 27.8587L36.9481 27.8814L36.9934 27.9041L37.0312 27.9419L37.069 27.9797L37.103 28.0099L37.1181 28.0628L37.1257 28.112V28.815L37.103 28.8641L37.0803 28.9095L37.0501 28.9435L37.0047 28.9813L36.9632 29.0039L36.914 29.0266H31.6756L31.6227 29.0039L31.5812 28.9813L31.5358 28.9435L31.5056 28.9057L31.4753 28.8641L31.4602 28.815L31.4527 28.7583V25.1299L31.1654 25.4247L30.8479 25.7422L30.504 26.0824L30.1374 26.4377L29.7481 26.7854L29.3512 27.1444L28.9431 27.5035L28.5311 27.8399L28.3232 28.0062L28.1153 28.1611L27.9075 28.3199L27.7034 28.4635L27.5031 28.6071L27.299 28.7356L27.0987 28.8565L26.9059 28.9699L26.7169 29.072L26.528 29.1665L26.3503 29.2421L26.1765 29.3101L26.0026 29.3592L25.8401 29.4008L25.6889 29.4235L25.5377 29.431L25.3865 29.4235L25.2429 29.4083L25.1144 29.3857L24.9897 29.3517L24.8763 29.3101L24.7667 29.2647L24.6647 29.208L24.5702 29.1476L24.487 29.0795L24.4076 29.0077L24.3321 28.9359L24.264 28.8603L24.1317 28.694L24.0108 28.5239L23.8899 28.3501L23.7765 28.1838L23.716 28.112L23.6517 28.0364L23.5875 27.9608L23.5195 27.9003L23.4514 27.8361L23.3683 27.7832L23.2927 27.734L23.2058 27.6887L23.1113 27.6547L23.0092 27.632L22.9034 27.6169L22.79 27.6093L22.688 27.6169L22.5935 27.632L22.499 27.6547L22.4121 27.6925L22.3289 27.734L22.2496 27.7832L22.1702 27.8361L22.087 27.9003L21.7658 28.1838L21.3878 28.5239L21.2896 28.6071L21.1762 28.694L21.0628 28.7734L20.9305 28.8603L20.7944 28.9359L20.6508 29.0115L20.4996 29.0795L20.3333 29.1476L20.1519 29.208L19.9592 29.2685L19.7551 29.3101L19.5396 29.3554L19.3053 29.3895L19.0596 29.4121L18.7951 29.4272L18.5116 29.4348L18.2017 29.4272L17.8918 29.397L17.5894 29.3517L17.2946 29.2874L16.9998 29.2118L16.7126 29.1135L16.4329 29.0077L16.1608 28.8868L15.8924 28.7432L15.6316 28.592L15.3822 28.4295L15.1365 28.2405L14.8984 28.0515L14.6716 27.8399L14.4449 27.6244L14.237 27.3977L14.0367 27.152L13.8477 26.895L13.6701 26.638L13.5038 26.3658L13.345 26.0786L13.1939 25.7838L13.0653 25.4814L12.9406 25.1791L12.8348 24.8616L12.7403 24.5328L12.6534 24.2002L12.5891 23.8638L12.54 23.5237L12.4946 23.1722L12.472 22.8131L12.4644 22.4541L12.472 22.095L12.4946 21.7359L12.54 21.3882L12.5891 21.0481L12.6534 20.7079L12.7403 20.3753L12.8348 20.0541L12.9406 19.7404L13.0653 19.4305L13.1939 19.1281L13.345 18.8371L13.5038 18.5498L13.6701 18.2777L13.8477 18.0131L14.0367 17.7637L14.237 17.518L14.4449 17.2837L14.6716 17.0683L14.8984 16.8604L15.1365 16.6601L15.3822 16.4787L15.6316 16.3086L15.8924 16.1574L16.157 16.0138L16.4329 15.8928L16.7126 15.7794L16.9998 15.685L17.2946 15.6094L17.5894 15.5489L17.8918 15.5073L18.2017 15.4771L18.5116 15.462L18.7611 15.4695L19.003 15.4846L19.2222 15.5073L19.4414 15.53L19.6417 15.564L19.8344 15.6018L20.0159 15.6509L20.1935 15.6925L20.356 15.7492L20.511 15.8097L20.6622 15.8664L20.802 15.9306L20.9305 15.9949L21.059 16.0667L21.1724 16.1309L21.2896 16.2028L21.6788 16.4673L21.9963 16.7016L22.1399 16.7961L22.2684 16.8679L22.3327 16.8982L22.4007 16.9171L22.4574 16.9246L22.5217 16.9322H22.5935L22.6653 16.9171L22.7295 16.8982L22.7862 16.8755L22.8467 16.8453L22.8958 16.7999L22.9374 16.7583L22.9828 16.7054L23.0206 16.6563L23.0546 16.592L23.0848 16.5278L23.1151 16.456L23.1642 16.3048L23.202 16.1347L23.2171 16.0818L23.2473 16.0327L23.2776 15.9911L23.3116 15.9533L23.3532 15.9231L23.4099 15.9004L23.4703 15.8853L23.527 15.8777H27.8092L27.8583 15.8853L27.9075 15.9004L27.9528 15.9231L27.9944 15.9571L28.0246 15.9911L28.0549 16.0327L28.07 16.0818V16.8377L28.0473 16.8793L28.0171 16.9246L27.9793 16.9587L27.9377 16.9889L27.8924 17.0191L27.8508 17.0342L27.8092 17.0494L27.0079 17.2837L26.9664 17.2988L26.921 17.3177L26.8794 17.3479L26.8454 17.3782L26.8152 17.4122L26.7925 17.4538L26.7774 17.4991L26.7698 17.5483V24.6537L26.7774 24.7407L26.7925 24.8276L26.8152 24.9032L26.8492 24.9825L26.887 25.0581L26.9361 25.1262L26.9928 25.1904L27.0495 25.2509L27.1176 25.3076L27.1894 25.3567L27.265 25.3983L27.3481 25.4361L27.4237 25.4625L27.5106 25.4852L27.5976 25.5003H27.7714L27.8583 25.4852L27.949 25.4625L28.0511 25.4323L28.1531 25.3983L28.259 25.3567L28.3724 25.3076L28.4857 25.2509L28.7201 25.1186L28.9733 24.9788L29.2227 24.8049L29.4835 24.6273L29.7481 24.4383L30.0164 24.238L30.2734 24.0301L30.5342 23.826L31.0256 23.4141L31.4564 23.0361V17.964L31.4489 17.9073L31.4338 17.8582L31.4186 17.8128L31.3884 17.7712L31.3657 17.7297L31.3279 17.6994L31.3015 17.6616L31.2637 17.6314L31.2259 17.6087L31.1805 17.5861L31.139 17.5709L31.0936 17.5634L31.0445 17.5483H30.9916L30.9424 17.5407L30.8895 17.5483L30.8404 17.5558L30.795 17.5709L30.7534 17.5936L30.6778 17.6314L30.6098 17.6919L30.5305 17.741L30.4435 17.7939L30.3944 17.809L30.3339 17.8242L30.2734 17.8393H30.126L30.0618 17.8242L29.9975 17.809L29.9408 17.7864L29.8842 17.7561L29.835 17.7183L29.7821 17.6805L29.7405 17.6427L29.7027 17.5936L29.6649 17.5445L29.646 17.4916L29.6158 17.4424L29.6007 17.3857L29.5856 17.3328L29.578 17.2761L29.5705 17.2194L29.578 17.1703L29.5856 17.1098L29.6007 17.0494L29.6234 16.9813L29.6423 16.9209L29.6801 16.8528L29.7141 16.781L29.7519 16.7092L29.801 16.6374L29.8501 16.5694L29.9068 16.4862L29.9711 16.4182L30.0391 16.3426L30.1109 16.2746L30.1865 16.199L30.2697 16.1309L30.3528 16.0554L30.4473 15.9949L30.5418 15.9306L30.6438 15.8739L30.7421 15.8059L30.8517 15.7568L30.9575 15.7001L31.0823 15.6585L31.1956 15.6131L31.3204 15.5716L31.4489 15.5413L31.5774 15.5111L31.7134 15.4809L31.8533 15.4657L31.9969 15.4582L32.1405 15.4506L32.3862 15.4582L32.6054 15.4733L32.8171 15.5035L33.0098 15.5413L33.1912 15.5905L33.3575 15.6434L33.5087 15.7001L33.6523 15.7719L33.7808 15.8437L33.8942 15.9193L34.0076 15.9987L34.0983 16.0856L34.1928 16.1801L34.2684 16.2708L34.344 16.3577L34.4158 16.456L34.6426 16.8226L34.8542 17.1401L34.9033 17.2081L34.96 17.2686L35.0205 17.3253L35.0772 17.3668L35.149 17.4046L35.2208 17.4311L35.3002 17.4462L35.3871 17.4538L35.4627 17.4462L35.5383 17.4311L35.6101 17.4009L35.6819 17.3668L35.7462 17.3253L35.818 17.2686L35.8822 17.2081L35.9465 17.1401L36.211 16.8226L36.5134 16.456L36.6003 16.3577L36.6873 16.2708L36.7818 16.1801L36.8914 16.0856L36.9972 15.9987L37.1106 15.9231L37.2353 15.8437L37.3638 15.7681L37.5036 15.7001L37.6548 15.6434L37.8098 15.5905L37.9836 15.5413L38.1613 15.5035L38.3503 15.4733L38.5581 15.4582L38.7736 15.4506L38.9361 15.4582L39.091 15.4657L39.2498 15.4884L39.4085 15.5187L39.5597 15.5527L39.7109 15.5905L39.8545 15.6396L39.9981 15.6925L40.138 15.753L40.274 15.821L40.4025 15.8966L40.5235 15.976L40.6444 16.0629L40.7691 16.1498L40.875 16.2481L40.9883 16.3502L41.0942 16.456L41.1887 16.5656L41.2794 16.679L41.3663 16.7999L41.4532 16.9284L41.525 17.0569L41.5893 17.1892L41.6535 17.3253L41.7102 17.4689L41.7631 17.6087L41.7972 17.7599L41.835 17.9111L41.8652 18.0623L41.8879 18.221L41.8954 18.376V18.5498ZM22.4083 20.3035L22.4007 20.2279L22.3932 20.141L22.3705 20.0616L22.3516 19.986L22.3214 19.8953L22.2836 19.8197L22.2458 19.7366L22.2004 19.661L22.1513 19.5816L22.0908 19.506L22.0303 19.438L21.9623 19.3624L21.8981 19.2944L21.8225 19.2226L21.7431 19.1583L21.6637 19.1016L21.5768 19.0374L21.4899 18.9807L21.4029 18.924L21.3085 18.8711L21.214 18.8219L21.1157 18.7766L21.0137 18.735L20.9116 18.701L20.8133 18.6632L20.7113 18.633L20.6017 18.6027L20.5034 18.5801L20.3938 18.5649L20.288 18.5498L20.1859 18.5423H19.8836L19.6946 18.5574L19.517 18.5876L19.3356 18.6179L19.1617 18.6594L18.9954 18.7086L18.8329 18.769L18.6741 18.8333L18.523 18.9051L18.3793 18.9882L18.2357 19.0752L18.0997 19.1772L17.9674 19.2755L17.8389 19.3889L17.7255 19.5098L17.6083 19.6345L17.5025 19.7706L17.4004 19.9067L17.306 20.0503L17.2115 20.2052L17.1359 20.364L17.0565 20.5227L16.9885 20.6928L16.9242 20.8667L16.8751 21.0556L16.826 21.2295L16.7806 21.426L16.7428 21.6188L16.7239 21.8191L16.7012 22.027L16.6861 22.2348V22.6581L16.7012 22.866L16.7239 23.0739L16.7428 23.2742L16.7806 23.467L16.826 23.6597L16.8751 23.8487L16.9242 24.0263L16.9885 24.204L17.0565 24.3703L17.1321 24.5328L17.2115 24.6991L17.306 24.8503L17.4004 24.9939L17.5025 25.1337L17.6083 25.2736L17.7217 25.4021L17.8351 25.5155L17.9674 25.6288L18.0997 25.7384L18.2357 25.8367L18.3793 25.9236L18.523 26.0106L18.6741 26.0862L18.8329 26.1542L18.9954 26.2109L19.1617 26.26L19.3356 26.3054L19.517 26.3356L19.6946 26.3658L19.8836 26.381H20.1859L20.288 26.3734L20.3938 26.3583L20.5034 26.3432L20.6017 26.3243L20.7113 26.294L20.8133 26.2638L20.9116 26.226L21.0137 26.1882L21.1157 26.1504L21.214 26.1051L21.3085 26.0559L21.4029 26.003L21.4899 25.9463L21.5768 25.8896L21.6637 25.8329L21.7393 25.7687L21.8187 25.7044L21.8981 25.6288L21.9623 25.5608L22.0303 25.4852L22.0908 25.4172L22.1513 25.3454L22.2004 25.266L22.242 25.1904L22.2873 25.1073L22.3214 25.0317L22.3516 24.9523L22.3705 24.8654L22.3932 24.7898L22.4007 24.6991L22.4083 24.6235V20.3035ZM43.2485 24.6424L43.2561 24.9523L43.2749 25.2547L43.3127 25.5381L43.3657 25.8103L43.4223 26.0673L43.4979 26.3129L43.5886 26.5473L43.6794 26.7703L43.789 26.9781L43.9023 27.1671L44.0271 27.3561L44.1631 27.5299L44.3068 27.6925L44.4504 27.8436L44.6091 27.9873L44.7678 28.1158L44.9341 28.2367L45.1042 28.3463L45.2781 28.4446L45.4595 28.5391L45.6371 28.626L45.8186 28.6978L46 28.7696L46.1889 28.8263L46.3666 28.8754L46.5556 28.917L46.7332 28.9548L46.9108 28.985L47.0847 29.0077L47.2661 29.0228L47.4324 29.0304H56.7527L56.9379 29.0153L57.1268 28.9926L57.3158 28.9624L57.4935 28.9284L57.6824 28.8792L57.8601 28.8301L58.0339 28.7658L58.204 28.6902L58.3779 28.6222L58.5442 28.5353L58.7029 28.4408L58.8578 28.3425L59.009 28.2329L59.1602 28.1195L59.2963 27.9986L59.4361 27.8701L59.5646 27.734L59.6893 27.598L59.8027 27.4468L59.9086 27.288L60.0106 27.1331L60.1051 26.9592L60.192 26.7892L60.2638 26.6077L60.3281 26.4188L60.3848 26.2298L60.4339 26.0295L60.4717 25.8292L60.4982 25.6213L60.5133 25.4059L60.5208 25.1829L60.5057 24.854L60.4566 24.5517L60.3848 24.2644L60.2827 24.0074L60.1542 23.758L60.0106 23.535L59.8367 23.3196L59.6478 23.1192L59.4475 22.9416L59.232 22.7678L59.0053 22.6128L58.7558 22.4616L58.5139 22.318L58.2531 22.1895L57.9961 22.061L57.7353 21.9363L57.2175 21.7171L56.7149 21.4903L56.4768 21.3882L56.2462 21.2749L56.0232 21.1615L55.8229 21.0405L55.6339 20.9271L55.4676 20.7986L55.3165 20.6626L55.188 20.5189L55.0859 20.3678L55.0141 20.2052L54.965 20.0314L54.9498 19.8424L54.9574 19.7668V19.6912L54.9725 19.6194L54.9876 19.5552L55.0103 19.4909L55.0406 19.4267L55.0708 19.37L55.101 19.3133L55.1388 19.2604L55.1804 19.2112L55.2257 19.1621L55.2749 19.1168L55.324 19.079L55.3769 19.0336L55.4336 18.9958L55.4979 18.958L55.6264 18.9013L55.77 18.8446L55.9212 18.8031L56.0799 18.7653L56.2462 18.7426L56.4276 18.7237L56.6053 18.7161L56.7942 18.7086L56.9454 18.7161L57.0966 18.7237L57.2478 18.7426L57.4141 18.7653L57.569 18.8031L57.7353 18.8371L57.8941 18.8786L58.0604 18.9316L58.2191 18.9882L58.3741 19.0449L58.5253 19.1092L58.6764 19.1734L58.8238 19.249L58.9523 19.3246L59.0808 19.4002L59.1942 19.4834L59.232 19.506L59.2698 19.5287L59.3001 19.5363L59.3379 19.5438L59.3681 19.5514L59.3983 19.5438L59.4361 19.5363L59.455 19.5287L59.5079 19.4985L59.5495 19.4531L59.5873 19.4116L59.6062 19.3662L60.9819 16.2368L60.9971 16.1801L61.0046 16.1234L60.9971 16.0667L60.9744 16.0062L60.9517 15.976L60.9366 15.9533L60.9063 15.9306L60.8837 15.908L60.8497 15.8928L60.8194 15.8777L60.7816 15.8702H54.3035L54.141 15.8777L53.9823 15.8853L53.816 15.908L53.6572 15.9457L53.5061 15.9835L53.3473 16.0213L53.1962 16.0818L53.045 16.1385L52.9014 16.2028L52.7577 16.2821L52.6217 16.3577L52.4856 16.4484L52.3571 16.5391L52.2324 16.6412L52.1114 16.7508L51.998 16.8642L51.8847 16.9776L51.7713 17.0985L51.6806 17.2308L51.5785 17.3593L51.4916 17.5029L51.416 17.639L51.3329 17.7901L51.2686 17.93L51.2043 18.0887L51.1552 18.2475L51.1023 18.4024L51.0683 18.5687L51.0381 18.735L51.0154 18.8975L51.0003 19.0714L50.9927 19.249L51.0078 19.5779L51.0532 19.8953L51.1174 20.1788L51.2043 20.4434L51.3102 20.689L51.4425 20.9158L51.5936 21.1312L51.7524 21.3278L51.93 21.5054L52.119 21.6717L52.3193 21.8267L52.531 21.9703L52.7464 22.1063L52.9618 22.2348L53.1886 22.3558L53.4154 22.4692L53.8689 22.6959L54.2998 22.9189L54.5076 23.0323L54.708 23.1457L54.8969 23.2667L55.0746 23.3989L55.2409 23.5312L55.3845 23.6748L55.5168 23.826L55.6226 23.9999L55.7095 24.1775L55.7738 24.3703L55.8191 24.5781L55.8342 24.8011V24.8956L55.8267 24.9788L55.8116 25.0733L55.7965 25.1564L55.7738 25.2433L55.7511 25.3303L55.7209 25.4172L55.6906 25.4928L55.6528 25.5759L55.6075 25.6515L55.5659 25.7309L55.5205 25.8065L55.4714 25.8745L55.4147 25.9388L55.358 26.003L55.2976 26.071L55.2371 26.1315L55.1691 26.192L55.101 26.2411L55.0254 26.2903L54.9536 26.3394L54.878 26.3847L54.7987 26.4263L54.708 26.4641L54.6248 26.5019L54.5379 26.5284L54.4434 26.551L54.3565 26.5737L54.2582 26.5888L54.1637 26.604L54.0617 26.6115H53.7669L53.5779 26.5964L53.3927 26.5775L53.2188 26.5548L53.045 26.517L52.89 26.4792L52.7388 26.4339L52.5877 26.3847L52.444 26.3243L52.3117 26.26L52.1832 26.1958L52.0623 26.124L51.9489 26.0484L51.8317 25.9652L51.7297 25.8896L51.6277 25.8027L51.5445 25.7158L51.4576 25.6251L51.3782 25.5381L51.2988 25.4436L51.2346 25.3529L51.1703 25.2584L51.1099 25.164L51.0607 25.0695L51.0192 24.9788L50.9738 24.8843L50.9398 24.7936L50.9058 24.7066L50.8831 24.6197L50.8604 24.5328L50.8453 24.4496L50.8302 24.3703L50.8226 24.34L50.8151 24.3098L50.7999 24.2871L50.7848 24.2569L50.7433 24.2115L50.6903 24.1775L50.6336 24.1548L50.577 24.1397H50.5203L50.4598 24.1473L49.5754 24.4988L49.5451 24.5139L49.5149 24.5366L49.4922 24.5592L49.4696 24.5819L49.4393 24.6386L49.4166 24.6953L49.4091 24.7558L49.4166 24.8162L49.4318 24.8692L49.462 24.9183L49.5149 24.9901L49.564 25.0619L49.6056 25.1337L49.6434 25.2093L49.6623 25.2925L49.685 25.3832L49.7001 25.4777V25.6855L49.6774 25.7914L49.6548 25.8934L49.6207 25.9841L49.5792 26.0786L49.5262 26.1655L49.4696 26.2411L49.3977 26.3243L49.3259 26.3847L49.2503 26.4528L49.1634 26.5019L49.0689 26.551L48.9669 26.5888L48.8648 26.6077L48.759 26.6304H48.5322L48.4264 26.6077L48.3206 26.5775L48.2261 26.5397L48.1316 26.4906L48.0447 26.4414L47.9691 26.3772L47.8935 26.3016L47.8293 26.226L47.7726 26.1504L47.7234 26.0597L47.6781 25.969L47.6403 25.8745L47.6214 25.7762L47.6063 25.6818L47.5987 25.5797V7.15839L47.5911 7.10926L47.576 7.05635L47.5533 7.00721L47.5193 6.96942L47.4815 6.93162L47.4324 6.91272L47.3908 6.89761L47.3304 6.89005H42.2016L42.1487 6.89761L42.0995 6.91272L42.0504 6.9354L42.0126 6.9732L41.9748 7.00721L41.9559 7.05635L41.9408 7.10926L41.9332 7.15839V7.80091L41.9408 7.85382L41.9635 7.90296L41.9937 7.94831L42.0277 7.97855L42.0693 8.01256L42.1109 8.03524L42.1562 8.05791L42.1978 8.07303L42.999 8.30736L43.0406 8.32248L43.0822 8.34138L43.12 8.36406L43.1578 8.39429L43.1842 8.43209L43.2145 8.47366L43.2296 8.51901L43.2372 8.56815L43.2485 24.6424ZM115.524 16.1385V16.7924L115.516 16.8415L115.501 16.8868L115.471 16.9284L115.433 16.9662L115.392 16.9927L115.346 17.0229L115.305 17.038L115.252 17.0531L114.454 17.2875L114.417 17.3026L114.379 17.3215L114.333 17.3517L114.296 17.382L114.269 17.4198L114.247 17.4613L114.231 17.5029L114.224 17.5558V31.0562L114.216 31.3661L114.194 31.6685L114.148 31.9595L114.099 32.2543L114.027 32.5416L113.94 32.825L113.846 33.0971L113.733 33.3693L113.612 33.6301L113.476 33.8871L113.328 34.1365L113.173 34.3746L112.999 34.6089L112.81 34.8357L112.621 35.0474L112.413 35.2552L112.206 35.4442L111.983 35.6332L111.756 35.8071L111.514 35.9771L111.272 36.1283L111.011 36.2719L110.754 36.4004L110.49 36.5214L110.214 36.6234L109.93 36.7141L109.643 36.7935L109.348 36.8691L109.053 36.9144L108.759 36.9522L108.456 36.9711L108.15 36.9787H107.939L107.731 36.9711L107.527 36.956L107.319 36.9333L107.118 36.9031L106.926 36.8729L106.722 36.8313L106.529 36.7859L106.332 36.7368L106.143 36.6877L105.958 36.631L105.78 36.5554L105.599 36.4949L105.418 36.4156L105.248 36.3362L105.074 36.2493L104.907 36.1586L104.745 36.0641L104.582 35.962L104.431 35.8562L104.28 35.7504L104.129 35.637L103.989 35.5123L103.849 35.3913L103.721 35.2628L103.592 35.1343L103.467 34.9982L103.346 34.8546L103.237 34.711L103.131 34.5598L103.021 34.4086L102.931 34.2499L102.791 34.4804L102.632 34.7299L102.462 34.9869L102.265 35.2628L102.05 35.55L101.808 35.8411L101.547 36.1434L101.26 36.4458L100.943 36.7595L100.603 37.0656L100.24 37.3831L99.8428 37.6968L99.4082 38.0105L98.9546 38.328L98.4633 38.6341L97.9417 38.9365L97.3861 39.2313L96.8041 39.5147L96.1805 39.7944L95.5153 40.059L94.8199 40.3122L94.0829 40.5466L93.3081 40.7695L92.4879 40.9699L91.63 41.1588L90.7304 41.3289L89.7856 41.4725L88.7953 41.5935L87.7635 41.6842L86.6864 41.7598L85.5563 41.7976L84.3846 41.8165L83.7043 41.8089L83.0089 41.7787L82.2832 41.7295L81.5349 41.6728L80.7563 41.5935L79.9702 41.499L79.1651 41.3894L78.3374 41.276L77.5022 41.1475L76.6593 41.0114L75.8052 40.8678L74.9397 40.7166L73.2011 40.4105L71.4512 40.0892L69.7126 39.7566L68.0043 39.4505L67.1614 39.2993L66.3299 39.1557L65.5211 39.0196L64.7199 38.8911L63.9375 38.7777L63.1816 38.6719L62.437 38.5774L61.7265 38.5018L61.0348 38.4414L60.3734 38.3885L59.7385 38.3582L59.1451 38.3507L58.3514 38.3582L57.5728 38.3809L56.8094 38.4111L56.0686 38.464L55.3354 38.5283L54.6248 38.6039L53.918 38.6984L53.2264 38.808L52.5499 38.9289L51.8884 39.065L51.2308 39.2237L50.5883 39.3938L49.9533 39.5828L49.3335 39.7793L48.7137 40.0061L48.1089 40.2404L47.5118 40.4899L46.9222 40.762L46.3401 41.0492L45.7543 41.3554L45.1874 41.688L44.6205 42.0243L44.0573 42.3872L43.4979 42.7651L42.9423 43.1695L42.3868 43.5853L41.835 44.0237L41.2869 44.4772L40.7389 44.961L40.1871 45.4524L39.6391 45.9701L39.091 46.5144L39.0419 46.556L38.9928 46.5938L38.9474 46.624L38.8983 46.6391L38.8491 46.6467L38.7887 46.6391L38.732 46.6164L38.6677 46.5862L27.7374 40.6524L27.692 40.6146L27.6505 40.5692L27.6202 40.5125L27.6051 40.4558L27.5976 40.4256V40.3651L27.6051 40.3349L27.6202 40.3047L27.6353 40.2744L27.658 40.2518L27.6807 40.2215L28.3724 39.6622L29.0753 39.1179L29.7934 38.5888L30.5305 38.071L31.2863 37.5796L32.0498 37.1034L32.8246 36.6461L33.6107 36.2001L34.4082 35.7806L35.2133 35.3762L36.0296 34.9869L36.8498 34.6203L37.6699 34.2612L38.4976 33.9324L39.3291 33.6112L40.1606 33.3088L40.9921 33.0291L41.8312 32.7645L42.6551 32.5189L43.4904 32.2921L44.3105 32.0842L45.1345 31.8915L45.9471 31.7176L46.7521 31.5589L47.5458 31.4228L48.3281 31.3094L49.1067 31.1998L49.8664 31.1242L50.6147 31.06L51.3517 31.0146L52.0699 30.9844L52.7766 30.9693L54.1221 30.992L55.4374 31.0562L56.7338 31.1507L58.0075 31.2792L59.2585 31.4455L60.4982 31.6345L61.7076 31.8461L62.9095 32.088L64.0811 32.345L65.249 32.6247L66.398 32.9195L67.5394 33.2257L68.6581 33.5507L69.7768 33.8719L70.8729 34.2121L71.969 34.5371L74.1346 35.2023L76.2814 35.8486L77.3548 36.1586L78.4206 36.4496L79.4826 36.7293L80.5484 36.9938L81.6143 37.2319L82.6876 37.4474L83.7572 37.6363L84.8382 37.7951L85.9191 37.9349L87.0152 38.0256L88.1112 38.0823L89.2224 38.105L90.1371 38.0899L91.0215 38.0483L91.8529 37.9841L92.6542 37.8896L93.4177 37.7762L94.1358 37.6326L94.8199 37.4738L95.4699 37.3037L96.086 37.111L96.6643 36.9031L97.2085 36.6763L97.7225 36.4382L98.2025 36.1926L98.6485 35.9356L99.0642 35.671L99.4498 35.4064L99.8088 35.1267L100.141 34.8471L100.444 34.5674L100.716 34.2877L100.962 34.008L101.181 33.7283L101.377 33.46L101.551 33.1954L101.702 32.9346L101.831 32.6852L101.933 32.4395L102.02 32.2127L102.084 31.9973L102.133 31.797L102.156 31.608L102.163 31.4455L102.171 31.3888L102.194 31.3283L102.224 31.2905L102.258 31.2527L102.296 31.2187L102.345 31.1961L102.386 31.1809L102.432 31.1734H103.437L103.482 31.1809L103.524 31.1961L103.577 31.2187L103.611 31.249L103.649 31.2868L103.679 31.3283L103.702 31.3888L103.709 31.4455V31.6005L103.724 31.7516L103.747 31.9028L103.77 32.054L103.804 32.1976L103.845 32.3412L103.894 32.4773L103.955 32.6134L104.012 32.7419L104.083 32.8704L104.155 32.9913L104.231 33.1047L104.322 33.2219L104.416 33.3353L104.514 33.4449L104.616 33.5431L104.722 33.6376L104.839 33.7283L104.953 33.8153L105.077 33.8946L105.206 33.9702L105.338 34.0382L105.474 34.1025L105.61 34.1592L105.754 34.2121L105.898 34.2499L106.049 34.2952L106.2 34.3255L106.351 34.3557L106.51 34.3708L106.669 34.386H106.994L107.149 34.3708L107.307 34.3482L107.459 34.3179L107.61 34.2877L107.761 34.2461L107.897 34.1932L108.041 34.1441L108.18 34.0798L108.309 34.0156L108.43 33.94L108.562 33.8568L108.676 33.7737L108.789 33.6792L108.902 33.5771L109.001 33.4789L109.099 33.3731L109.193 33.2597L109.28 33.1349L109.367 33.014L109.443 32.8855L109.518 32.7532L109.583 32.6134L109.639 32.4773L109.692 32.3261L109.73 32.1825L109.775 32.0238L109.806 31.8688L109.836 31.7101L109.859 31.5438L109.866 31.3813L109.874 31.215V28.6298L109.866 28.5731V28.5202L109.859 28.4786L109.843 28.4295L109.828 28.3917L109.806 28.3539L109.783 28.3161L109.753 28.2858L109.722 28.2556L109.688 28.2329L109.651 28.2102L109.609 28.1876L109.567 28.1724L109.515 28.1649L109.465 28.1573H109.367L109.322 28.1724L109.28 28.1876L109.235 28.2102L109.14 28.2745L109.035 28.3539L108.921 28.4484L108.789 28.5542L108.645 28.6676L108.471 28.7809L108.377 28.849L108.279 28.9057L108.169 28.9624L108.056 29.0191L107.931 29.072L107.802 29.1211L107.666 29.1702L107.515 29.2194L107.364 29.2647L107.19 29.2987L107.016 29.3365L106.831 29.3668L106.635 29.3895L106.427 29.4046L106.204 29.4197H105.977L105.663 29.4121L105.357 29.3819L105.055 29.3365L104.76 29.2723L104.465 29.2005L104.174 29.1022L103.894 28.9926L103.622 28.8717L103.358 28.728L103.093 28.5769L102.844 28.4143L102.598 28.2254L102.364 28.0364L102.133 27.8247L101.918 27.6131L101.699 27.3863L101.498 27.1406L101.309 26.8836L101.132 26.6229L100.965 26.3507L100.807 26.0635L100.655 25.7725L100.527 25.4701L100.406 25.164L100.293 24.8465L100.202 24.5177L100.115 24.1889L100.051 23.8487L100.002 23.5085L99.96 23.157L99.9373 22.798L99.9297 22.4389L99.9373 22.0837L99.96 21.7246L100.002 21.3731L100.051 21.0367L100.115 20.6928L100.202 20.364L100.296 20.0427L100.406 19.7253L100.527 19.4191L100.655 19.1168L100.807 18.8219L100.965 18.5385L101.132 18.2664L101.313 18.0018L101.498 17.7486L101.699 17.5029L101.918 17.2686L102.133 17.0531L102.36 16.8453L102.598 16.645L102.844 16.4673L103.097 16.2935L103.354 16.1423L103.619 16.0024L103.894 15.8777L104.174 15.7643L104.465 15.6698L104.76 15.5943L105.055 15.5376L105.357 15.4922L105.663 15.462L105.973 15.4468L106.226 15.4544L106.465 15.4695L106.688 15.4922L106.903 15.5149L107.107 15.5527L107.296 15.5905L107.477 15.6358L107.659 15.6774L107.818 15.7379L107.976 15.7946L108.128 15.8513L108.264 15.9155L108.392 15.9798L108.524 16.0554L108.638 16.1158L108.751 16.1914L109.14 16.456L109.458 16.6903L109.602 16.7848L109.73 16.8528L109.798 16.8831L109.862 16.902L109.919 16.9095L109.983 16.9171H110.059L110.127 16.902L110.191 16.8831L110.248 16.8604L110.308 16.8302L110.357 16.7886L110.399 16.7432L110.444 16.6941L110.478 16.645L110.516 16.5769L110.55 16.5127L110.573 16.4409L110.622 16.2897L110.66 16.1196L110.679 16.0705L110.701 16.0213L110.732 15.976L110.769 15.942L110.811 15.908L110.864 15.8853L110.921 15.8702L110.985 15.8626H115.259L115.316 15.8702L115.365 15.8853L115.411 15.908L115.452 15.9457L115.482 15.976L115.505 16.0213L115.528 16.0705L115.524 16.1385ZM109.866 20.3073L109.859 20.2317L109.851 20.1448L109.828 20.0654L109.806 19.9898L109.775 19.8991L109.741 19.8235L109.7 19.7404L109.654 19.6648L109.605 19.5854L109.549 19.5098L109.484 19.4418L109.416 19.3662L109.352 19.2982L109.273 19.2264L109.201 19.1621L109.114 19.1054L109.038 19.0412L108.944 18.9845L108.857 18.9278L108.762 18.8749L108.668 18.8257L108.57 18.7804L108.468 18.7388L108.366 18.7048L108.264 18.667L108.165 18.6368L108.056 18.6065L107.957 18.5838L107.848 18.5687L107.742 18.5536L107.629 18.546H107.338L107.149 18.5612L106.967 18.5914L106.79 18.6216L106.616 18.6632L106.449 18.7123L106.287 18.7728L106.128 18.8371L105.977 18.9089L105.833 18.992L105.69 19.079L105.554 19.181L105.421 19.2793L105.293 19.3927L105.179 19.5136L105.062 19.6383L104.956 19.7744L104.854 19.9104L104.76 20.0541L104.673 20.209L104.586 20.3678L104.514 20.5265L104.442 20.6966L104.378 20.8704L104.329 21.0594L104.276 21.2333L104.235 21.4298L104.204 21.6226L104.174 21.8229L104.155 22.0308L104.148 22.2386L104.14 22.4541L104.148 22.6619L104.155 22.8698L104.174 23.0777L104.204 23.278L104.235 23.4707L104.276 23.6635L104.329 23.8525L104.378 24.0301L104.442 24.2077L104.518 24.374L104.586 24.5366L104.673 24.7029L104.76 24.854L104.854 24.9977L104.956 25.1375L105.062 25.2773L105.176 25.4059L105.293 25.5192L105.421 25.6326L105.554 25.7422L105.69 25.8405L105.833 25.9274L105.977 26.0144L106.128 26.0899L106.287 26.158L106.449 26.2147L106.616 26.2638L106.79 26.3092L106.967 26.3394L107.149 26.3696L107.338 26.3847H107.632L107.742 26.3772L107.848 26.3621L107.957 26.3469L108.056 26.3281L108.165 26.2978L108.264 26.2676L108.366 26.2298L108.468 26.192L108.57 26.1542L108.668 26.1088L108.762 26.0597L108.857 26.0068L108.944 25.9501L109.035 25.8934L109.114 25.8367L109.201 25.7725L109.273 25.7082L109.352 25.6326L109.416 25.5646L109.484 25.489L109.549 25.421L109.605 25.3492L109.654 25.2698L109.7 25.1942L109.741 25.111L109.775 25.0355L109.806 24.9561L109.828 24.8692L109.851 24.7936L109.859 24.7029L109.866 24.6273V20.3073ZM101.105 15.1823L101.098 15.4242L101.083 15.6661L101.064 15.9042L101.026 16.1309L100.984 16.3464L100.935 16.5618L100.875 16.7621L100.81 16.9624L100.746 17.1514L100.671 17.329L100.584 17.5067L100.489 17.673L100.395 17.8317L100.293 17.9829L100.187 18.1265L100.073 18.2588L99.9562 18.3835L99.8428 18.5045L99.7181 18.6103L99.5896 18.7199L99.4649 18.8106L99.3288 18.8975L99.2003 18.9769L99.0605 19.0487L98.932 19.113L98.7959 19.1621L98.6598 19.2075L98.5238 19.249L98.3877 19.2793L98.2479 19.3019L98.1118 19.3095L97.9833 19.3171H97.8321L97.6885 19.3019L97.56 19.2868L97.4353 19.2642L97.3219 19.2415L97.2198 19.2075L97.1178 19.1697L97.0309 19.1357L96.9477 19.0941L96.8684 19.0487L96.7928 18.9996L96.7285 18.9505L96.6076 18.8484L96.4942 18.7426L96.3846 18.6368L96.2825 18.5347L96.1767 18.4364L96.0671 18.3495L96.0028 18.3117L95.9386 18.2815L95.8743 18.2512L95.795 18.221L95.7194 18.1983L95.6362 18.1832L95.5417 18.1757L95.4397 18.1681L95.3263 18.1757L95.2054 18.1908L95.092 18.221L94.9786 18.2588L94.8728 18.3079L94.7632 18.3646L94.6725 18.4289L94.5855 18.5007L94.4986 18.5876L94.423 18.6708L94.3625 18.7653L94.3134 18.8635L94.268 18.9731L94.234 19.079L94.2114 19.1923L94.2038 19.3171V27.3523L94.2114 27.4128L94.2265 27.4543L94.2567 27.4959L94.2869 27.5337L94.3247 27.5639L94.355 27.5942L94.4003 27.6093L94.4419 27.6244L95.2356 27.8625L95.2847 27.8776L95.3263 27.9003L95.3717 27.923L95.4132 27.957L95.4473 27.9948L95.4775 28.0288L95.5002 28.078L95.5077 28.1271V28.7734L95.5002 28.8301L95.485 28.883L95.4548 28.9246L95.4246 28.9586L95.383 28.9964L95.3377 29.0191L95.2885 29.0417H90.0501L89.9972 29.0191L89.9594 28.9964L89.9216 28.9586L89.8838 28.9246L89.8611 28.883L89.8385 28.8301V19.4456L89.8309 19.3095L89.8158 19.1848L89.7856 19.0714L89.7515 18.9656L89.71 18.8711L89.6571 18.7842L89.5966 18.7048L89.5285 18.633L89.453 18.5763L89.3698 18.5271L89.2829 18.4856L89.1922 18.4478L89.0901 18.4175L88.9881 18.3949L88.8898 18.3873L88.7802 18.3797L88.6744 18.3873L88.5572 18.4024L88.4438 18.4327L88.3191 18.4667L88.1906 18.5082L88.0621 18.5574L87.9223 18.6141L87.7786 18.6897L87.499 18.8408L87.2041 19.0034L86.9094 19.1923L86.6221 19.3813L86.607 19.6534L86.5768 19.918L86.539 20.175L86.4785 20.4282L86.4067 20.6777L86.3235 20.9234L86.229 21.1577L86.1157 21.3958L85.9909 21.6188L85.8473 21.838L85.6961 22.0534L85.5374 22.2537L85.356 22.4578L85.167 22.6468L84.9705 22.8282L84.755 22.9983L84.5283 23.1722L84.2939 23.3233L84.0483 23.4745L83.7875 23.6144L83.5229 23.7429L83.2394 23.8563L82.9446 23.9696L82.6498 24.0679L82.3361 24.1586L82.0187 24.2342L81.6861 24.3022L81.3459 24.3551L80.9944 24.3929L80.6354 24.4307L80.2688 24.4496L79.8946 24.4572L79.9021 24.5139L79.9097 24.5781L79.9324 24.6499L79.9551 24.7255L79.9891 24.8162L80.0344 24.907L80.076 25.0014L80.1327 25.0997L80.1969 25.2018L80.2725 25.3076L80.3406 25.4172L80.4275 25.5306L80.522 25.6364L80.624 25.7498L80.7299 25.8632L80.8432 25.969L80.968 26.0824L81.0889 26.1844L81.2288 26.2903L81.3724 26.3885L81.5236 26.483L81.6785 26.5737L81.8448 26.6569L82.0187 26.7325L82.2076 26.8118L82.3928 26.8761L82.5894 26.9252L82.7897 26.9781L82.9976 27.0159L83.213 27.0462L83.4398 27.0688H83.9424L84.207 27.0462L84.4602 27.0159L84.7059 26.9706L84.9478 26.9139L85.1746 26.8496L85.3938 26.774L85.6092 26.6758L85.8133 26.5775L86.0136 26.4641L86.2026 26.3432L86.3802 26.2033L86.5541 26.0521L86.7128 25.8972L86.8716 25.7233L87.0152 25.5457L87.0492 25.5041L87.087 25.4663L87.1248 25.4361L87.1626 25.4059L87.2079 25.3756L87.2533 25.3529L87.3024 25.3378L87.344 25.3151L87.3893 25.3076L87.4385 25.3H87.5254L87.567 25.3076L87.6123 25.3151L87.6539 25.3303L87.6993 25.3454L87.7333 25.3681L87.7673 25.3907L87.7975 25.4247L87.8278 25.455L87.858 25.4928L87.8807 25.5344L87.8958 25.5759L87.9109 25.6288L87.9185 25.6855V25.7989L87.9109 25.8745L87.8958 25.9425L87.8731 26.0181L87.8504 26.0937L87.8127 26.1806L87.7824 26.2638L87.7295 26.3583L87.6728 26.4566L87.6086 26.5662L87.533 26.6795L87.4574 26.8005L87.3629 26.9328L87.2608 27.0613L87.1626 27.1898L87.0416 27.3258L86.9169 27.4619L86.7884 27.598L86.6448 27.734L86.4936 27.8701L86.3273 28.0062L86.161 28.1422L85.9796 28.2707L85.7906 28.3992L85.5941 28.5239L85.3824 28.6449L85.167 28.7583L84.9402 28.8679L84.6983 28.9661L84.4565 29.0606L84.1957 29.1476L83.9311 29.2194L83.6476 29.2912L83.3604 29.3479L83.0656 29.3895L82.7557 29.4197L82.442 29.4424L82.1094 29.4499L81.7995 29.4424L81.4895 29.4197L81.1796 29.3895L80.8773 29.3403L80.5825 29.2836L80.2877 29.2118L80.0004 29.1324L79.7207 29.038L79.4448 28.9321L79.1727 28.8074L78.9081 28.6902L78.6473 28.5466L78.3941 28.3954L78.1485 28.2367L77.9141 28.0704L77.6836 27.8928L77.4568 27.7038L77.2451 27.5073L77.0373 27.2994L76.8408 27.0915L76.6518 26.8647L76.4741 26.6304L76.3003 26.3961L76.1415 26.1504L75.9904 25.901L75.8543 25.644L75.7258 25.3794L75.6011 25.1073L75.5028 24.8276L75.4083 24.5403L75.3214 24.2531L75.2496 23.9583L74.9472 23.86L74.6449 23.7542L74.3501 23.6408L74.0628 23.5085L73.7831 23.3725L73.5148 23.2364L73.2616 23.0928L73.0272 22.9492V25.5948L73.0121 25.7876L72.9894 25.9766L72.9592 26.158L72.9214 26.3394L72.876 26.5095L72.8269 26.6833L72.7627 26.8458L72.6984 27.0121L72.619 27.1709L72.5397 27.3221L72.4452 27.4732L72.3507 27.6131L72.2449 27.7491L72.1353 27.8776L72.0219 27.9986L71.8896 28.1233L71.7611 28.2367L71.625 28.3387L71.4814 28.437L71.3302 28.5315L71.179 28.6184L71.0127 28.694L70.8465 28.7696L70.6764 28.8301L70.495 28.883L70.306 28.9321L70.1208 28.9699L69.928 29.0039L69.7239 29.0266L69.5161 29.0417H66.8969L66.6172 29.0266L66.3337 28.9964L66.0692 28.9586L65.8084 28.917L65.5551 28.8641L65.3132 28.7998L65.0751 28.728L64.8484 28.6449L64.6216 28.558L64.4137 28.4559L64.2134 28.3501L64.0093 28.2367L63.8203 28.1044L63.6503 27.9759L63.4764 27.8323L63.3177 27.6925L63.1665 27.5337L63.0229 27.3674L62.8944 27.1973L62.7734 27.0159L62.6638 26.8269L62.5618 26.638L62.4711 26.4377L62.3841 26.2298L62.3199 26.0144L62.2519 25.7989L62.2027 25.5721L62.1687 25.3416L62.1385 25.0959L62.1233 24.854L62.1158 24.6046V8.57949L62.1082 8.53035L62.0931 8.48878L62.0704 8.44342L62.0364 8.40563L62.0024 8.37539L61.9646 8.35272L61.923 8.33382L61.8777 8.3187L61.084 8.08437L61.0386 8.06925L60.9933 8.04658L60.9441 8.01634L60.9063 7.9861L60.8685 7.94831L60.8421 7.91051L60.8194 7.86138L60.8119 7.81225V7.16973L60.8194 7.11682L60.8345 7.06768L60.8648 7.01477L60.895 6.98076L60.9328 6.94296L60.9819 6.92028L61.0311 6.90517L61.084 6.89761H66.2128L66.2695 6.90517L66.3224 6.92028L66.364 6.94296L66.4017 6.98076L66.4395 7.01855L66.4584 7.06768L66.4736 7.11682L66.4811 7.16595V25.1035L66.4962 25.2169L66.5114 25.3265L66.5416 25.4323L66.5718 25.5344L66.6096 25.6326L66.6474 25.7271L66.6928 25.814L66.7495 25.8972L66.8062 25.9841L66.8666 26.0635L66.9309 26.1353L67.0027 26.2071L67.0745 26.2714L67.1501 26.3281L67.2332 26.3923L67.3088 26.4414L67.3958 26.4943L67.4865 26.5435L67.5696 26.5888L67.6641 26.6229L67.7586 26.6606L67.8455 26.6947L67.9362 26.7249L68.1252 26.774L68.3142 26.8043L68.4918 26.8232L68.6657 26.8307L68.8584 26.8232L69.0474 26.808L69.2402 26.7854L69.4291 26.7476L69.5198 26.7211L69.6143 26.7022L69.7088 26.6644L69.7957 26.6342L69.8827 26.5964L69.9696 26.5548L70.0527 26.5095L70.1321 26.4603L70.2115 26.4112L70.2871 26.3545L70.3551 26.2865L70.4194 26.2222L70.4874 26.158L70.5441 26.0824L70.5932 26.003L70.6423 25.9236L70.6953 25.8292L70.7293 25.7347L70.7671 25.6364L70.7973 25.5344L70.82 25.421L70.8351 25.3076L70.8502 25.1866V21.5394L69.0776 20.4849L69.002 20.4282L68.9227 20.3715L68.8471 20.2997L68.7828 20.2279L68.7602 20.1864L68.7375 20.141L68.7186 20.0919L68.7035 20.039L68.6883 19.9898L68.6732 19.9331V19.8689L68.6657 19.8046V16.1385L68.6732 16.0856L68.6883 16.0365L68.7072 15.9911L68.745 15.9571L68.7828 15.9231L68.8282 15.9004L68.8811 15.8853L68.9302 15.8777H72.7664L72.8156 15.8853L72.8685 15.9004L72.9101 15.9231L72.9516 15.9609L72.9819 15.9911L73.0121 16.0365L73.0272 16.0856V21.1274L73.254 21.2673L73.4883 21.4109L73.7415 21.5545L74.0061 21.6982L74.2707 21.8418L74.5541 21.9778L74.8263 22.1139L75.1022 22.2273L75.1248 21.8796L75.1589 21.5356L75.208 21.1955L75.2722 20.8591L75.3592 20.5303L75.4612 20.209L75.5746 19.8953L75.7069 19.5854L75.8429 19.2831L76.0017 18.992L76.1718 18.7123L76.3532 18.4402L76.5497 18.1757L76.7576 17.9149L76.973 17.673L77.1998 17.4387L77.4492 17.2119L77.6987 17.0002L77.9595 16.8075L78.2316 16.6147L78.5113 16.4409L78.8023 16.2783L79.1047 16.1347L79.4146 15.9949L79.7207 15.8777L80.0458 15.7643L80.3746 15.6812L80.7072 15.6056L81.0549 15.5451L81.3951 15.5035L81.7503 15.4809L82.1094 15.4657L82.3135 15.4733L82.5062 15.4809L82.6952 15.496L82.8842 15.5187L83.0618 15.5413L83.2394 15.5716L83.4133 15.6094L83.5796 15.6509L83.7459 15.6963L83.9046 15.7454L84.0558 15.8021L84.207 15.8588L84.3506 15.9155L84.4867 15.9911L84.6227 16.0516L84.7513 16.1347L84.8835 16.2103L85.0045 16.2897L85.1179 16.3766L85.235 16.4635L85.3446 16.5467L85.4505 16.6412L85.5525 16.7432L85.647 16.8415L85.7339 16.9435L85.8171 17.0418L85.904 17.1476L85.9834 17.2572L86.059 17.3631L86.1194 17.4764L86.1837 17.5898L86.2517 17.707L86.4936 17.518L86.7544 17.329L87.0265 17.1363L87.31 16.9398L87.6048 16.7546L87.9071 16.5656L88.2095 16.3917L88.5232 16.2254L88.8407 16.0667L89.1582 15.9231L89.3169 15.8588L89.4756 15.7946L89.6344 15.7379L89.7893 15.6887L89.9481 15.6358L90.1068 15.5943L90.258 15.5565L90.4167 15.53L90.5679 15.5073L90.7191 15.4846L90.8703 15.4771L91.0215 15.4695L91.1802 15.4771L91.3314 15.4922L91.4674 15.5073L91.6035 15.5376L91.7282 15.5716L91.8416 15.6094L91.9512 15.6509L92.0495 15.7001L92.144 15.753L92.2309 15.8097L92.3178 15.8664L92.3934 15.9306L92.5408 16.0591L92.6693 16.1952L92.7827 16.335L92.8999 16.4635L93.0095 16.5845L93.1153 16.6903L93.172 16.7432L93.2325 16.7848L93.2967 16.8188L93.3534 16.8566L93.4252 16.8755L93.4895 16.8982L93.5688 16.9133H93.6973L93.7503 16.9057L93.7994 16.8906L93.8485 16.8679L93.9014 16.8453L93.9392 16.815L93.977 16.781L94.0224 16.7432L94.0526 16.7016L94.0904 16.6563L94.1093 16.6147L94.132 16.5656L94.1547 16.5127L94.1698 16.456L94.1773 16.4068V16.3502L94.1698 16.2179L94.1471 16.0969L94.1169 15.976L94.0866 15.8626L94.0526 15.7379L94.0224 15.6245L93.9997 15.5035L93.9921 15.3826L93.9997 15.3221V15.2579L94.0148 15.2012L94.0224 15.1445L94.0602 15.0311L94.1093 14.9177L94.166 14.8081L94.2378 14.7098L94.3134 14.6154L94.4117 14.5209L94.5024 14.4453L94.612 14.3697L94.7216 14.3054L94.8425 14.2487L94.9635 14.2072L95.0882 14.1769L95.2167 14.1543L95.3528 14.1467H95.4662L95.5833 14.1618L95.6967 14.1769L95.8063 14.2072L95.9121 14.2374L96.0142 14.2714L96.1162 14.3092L96.2183 14.3584L96.411 14.4604L96.6038 14.5662L96.7852 14.6872L96.9666 14.8119L97.148 14.9328L97.3257 15.0538L97.5071 15.1672L97.6847 15.2692L97.7717 15.3108L97.8661 15.3486L97.9568 15.3864L98.0513 15.4166L98.1534 15.4393L98.2479 15.4544L98.3499 15.4695H98.5427L98.6296 15.4468L98.7203 15.4242L98.811 15.3902L98.9017 15.341L98.9773 15.2843L99.068 15.2239L99.1398 15.1483L99.2116 15.0689L99.2759 14.982L99.3326 14.8837L99.3855 14.7817L99.4271 14.6683L99.4573 14.5549L99.4724 14.4302L99.48 14.3017V14.2374L99.4724 14.1656L99.4649 14.1013L99.4422 14.0295L99.4082 13.8859L99.3515 13.7347L99.2759 13.5798L99.2003 13.421L99.1058 13.2623L99 13.1073L98.8904 12.9486L98.7694 12.7899L98.6372 12.6349L98.5087 12.4837L98.3726 12.3401L98.2365 12.204L98.0891 12.068L97.9493 11.9432L97.9039 11.9092L97.8699 11.8677L97.8321 11.8223L97.8019 11.7732L97.7792 11.7316L97.7641 11.6825L97.749 11.6371V11.588L97.7414 11.5388L97.749 11.4935L97.7565 11.4444L97.7717 11.399L97.7868 11.3612L97.8057 11.3158L97.8283 11.2705L97.8586 11.2365L97.8888 11.1949L97.9266 11.1647L97.9568 11.1269L98.0022 11.1004L98.0438 11.0815L98.0854 11.0588L98.1383 11.0437L98.1874 11.0286L98.2365 11.021L98.2894 11.0135L98.3461 11.021L98.4028 11.0286L98.4595 11.0437L98.52 11.0588L98.5767 11.0891L98.6409 11.1193L98.7921 11.21L98.9357 11.3045L99.0794 11.399L99.2154 11.4973L99.3477 11.5993L99.4762 11.6976L99.5972 11.8072L99.7105 11.9206L99.8239 12.0264L99.9373 12.1398L100.039 12.2645L100.138 12.3779L100.232 12.4988L100.319 12.6273L100.406 12.7521L100.482 12.8806L100.557 13.0091L100.629 13.1451L100.693 13.2812L100.75 13.4173L100.807 13.5533L100.86 13.6969L100.909 13.8406L100.943 13.9842L100.977 14.1278L101.014 14.2714L101.037 14.4226L101.06 14.5738L101.079 14.7212L101.086 14.8724L101.094 15.0273L101.105 15.1823ZM84.0672 19.4267V19.3511L84.0596 19.2566L84.0445 19.1545L84.0256 19.0563L84.0029 18.9429L83.9613 18.8295L83.916 18.7161L83.8517 18.6027L83.8139 18.5536L83.7761 18.5045L83.7308 18.4478L83.6779 18.4024L83.6287 18.3533L83.572 18.3079L83.504 18.2701L83.4435 18.2323L83.368 18.1946L83.2924 18.1643L83.213 18.1341L83.1261 18.1152L83.0316 18.1001L82.9295 18.0849L82.8237 18.0774L82.7103 18.0698L82.5705 18.0774L82.4344 18.0925L82.2983 18.1227L82.1509 18.1605L82.0149 18.1983L81.8788 18.2588L81.7428 18.3231L81.6143 18.3949L81.482 18.4818L81.3535 18.5725L81.225 18.6745L81.1003 18.7879L80.9793 18.9089L80.8659 19.0374L80.7525 19.1772L80.6392 19.3284L80.5333 19.4796L80.4313 19.6497L80.333 19.8197L80.2461 19.9974L80.1591 20.1939L80.0798 20.3829L80.008 20.5945L79.9437 20.8062L79.8795 21.033L79.8303 21.2597L79.7774 21.4978L79.7396 21.7397L79.7094 21.9967L79.6867 22.2537L79.6716 22.5183L79.664 22.7942L79.9324 22.7867L80.1894 22.7715L80.4351 22.7337L80.6807 22.6922L80.9075 22.6393L81.1343 22.575L81.3497 22.5032L81.5576 22.4276L81.7579 22.3331L81.9544 22.2311L82.1434 22.1328L82.3135 22.0194L82.4798 21.9022L82.6461 21.7813L82.7972 21.6528L82.9409 21.5243L83.0694 21.392L83.2017 21.256L83.315 21.1161L83.4209 20.9763L83.5229 20.8326L83.6174 20.7004L83.7043 20.5567L83.7761 20.4207L83.8404 20.2771L83.8971 20.1486L83.95 20.0087L83.9878 19.8802L84.0218 19.7593L84.0407 19.6459L84.0558 19.5325L84.0672 19.4267ZM95.1789 3.137L95.1147 3.12944L95.058 3.12188L95.0013 3.10676L94.9408 3.08408L94.8917 3.06141L94.8425 3.03117L94.7896 2.99716L94.7518 2.95558L94.714 2.91023L94.6762 2.86865L94.646 2.81952L94.612 2.75905L94.5893 2.70235L94.5742 2.64566L94.5666 2.58141V1.30394L94.5591 1.22457L94.544 1.14898L94.5288 1.06583L94.4986 0.994017L94.4646 0.922206L94.4306 0.857955L94.3852 0.793703L94.3361 0.73701L94.2756 0.687877L94.2114 0.634964L94.1471 0.600948L94.0715 0.566933L94.0035 0.536696L93.9279 0.521578L93.8447 0.50646L93.7654 0.498901L93.6936 0.50646L93.6293 0.514019L93.5651 0.529137L93.5008 0.551814L93.4328 0.582051L93.3761 0.612287L93.327 0.650082L93.2703 0.687877L93.1682 0.755908L93.0662 0.831498L92.9603 0.884411L92.847 0.937324L92.7298 0.986458L92.6164 1.02425L92.4917 1.05449L92.3783 1.07717L92.2536 1.09228L92.1326 1.09984H92.0079L91.8794 1.09228L91.7585 1.06961L91.6337 1.04693L91.5128 1.01291L91.3918 0.96756L91.2898 0.933545L91.1802 0.910868L91.0781 0.888191L90.9723 0.880632L90.8627 0.888191L90.7644 0.89575L90.6548 0.918427L90.5566 0.948663L90.4621 0.994017L90.3676 1.03559L90.2731 1.09606L90.19 1.16032L90.1106 1.22457L90.035 1.30016L89.9632 1.39464L89.9065 1.48913L89.8574 1.5874L89.812 1.68945L89.7818 1.78771L89.7591 1.89732L89.744 2.00314V2.10519L89.7515 2.21102L89.7667 2.31306L89.7893 2.41889L89.8271 2.51338L89.8725 2.61165L89.9216 2.70613L89.9783 2.78928L90.0426 2.87621L90.1181 2.95558L90.2013 3.02739L90.2958 3.10676L90.3903 3.19369L90.4659 3.2844L90.549 3.38644L90.6208 3.48471L90.6851 3.59432L90.7342 3.70014L90.7833 3.81353L90.8287 3.93069L90.8589 4.04408L90.8892 4.16502L90.9043 4.28975L90.9194 4.41069V4.53164L90.9118 4.65636L90.9043 4.78486L90.8967 4.84911L90.8892 4.91336L90.8967 4.97762L90.9043 5.04187L90.9194 5.10612L90.9345 5.17037L90.9648 5.23462L90.995 5.29887L91.0441 5.36313L91.097 5.42738L91.1537 5.48407L91.2104 5.53698L91.2747 5.57856L91.3389 5.61635L91.4145 5.64281L91.4901 5.67305L91.5657 5.68816L91.6413 5.69572L91.7207 5.70328L91.7962 5.69572L91.8718 5.68061L91.9474 5.65793L92.023 5.62769L92.0986 5.5899L93.1569 4.97384L93.2173 4.9436L93.274 4.92092L93.3345 4.90581L93.3912 4.89825L93.4479 4.89069H93.5046L93.5613 4.89825L93.6217 4.91336L93.6785 4.92848L93.7276 4.95116L93.7805 4.9814L93.8296 5.01919L93.8712 5.05699L93.9166 5.09478L93.9506 5.14392L93.9884 5.19683L94.0186 5.25352L94.0413 5.31021L94.0564 5.36691L94.0715 5.4236V5.54076L94.064 5.59746L94.0488 5.65415L94.0337 5.71462L94.011 5.76375L93.9808 5.81289L93.943 5.86202L93.9052 5.90738L93.8674 5.94895L93.8145 5.98675L93.7654 6.02454L92.6996 6.62926L92.6353 6.67462L92.5673 6.72375L92.5106 6.78044L92.4614 6.83713L92.4199 6.90517L92.3821 6.9732L92.3443 7.04879L92.3254 7.11682L92.3103 7.19241L92.3027 7.268L92.2951 7.34359L92.3027 7.42674L92.3178 7.50233L92.3367 7.58548L92.367 7.65729L92.4047 7.72532L92.4425 7.78579L92.4879 7.84248L92.5333 7.89162L92.5824 7.93319L92.6315 7.97099L92.6882 8.00878L92.7449 8.03524L92.8054 8.06547L92.9188 8.11839L93.0284 8.17508L93.138 8.23933L93.2362 8.31114L93.3383 8.38295L93.4252 8.46988L93.5084 8.55303L93.5877 8.64752L93.6671 8.74578L93.7314 8.84783L93.7918 8.95366L93.8485 9.06326L93.8901 9.17665L93.9355 9.29759L93.9657 9.42232L93.9884 9.55082L94.011 9.65665L94.0413 9.75869L94.0791 9.85696L94.1244 9.95145L94.1811 10.0459L94.2492 10.1215L94.3134 10.2009L94.3928 10.2765L94.4684 10.337L94.5629 10.3937L94.6498 10.4466L94.7518 10.4881L94.8539 10.5259L94.9597 10.5448L95.0693 10.5675H95.2923L95.4057 10.5448L95.5077 10.5222L95.6098 10.4881L95.708 10.4466L95.8025 10.3937L95.8895 10.337L95.9764 10.2727L96.0482 10.2009L96.12 10.1253L96.1767 10.0459L96.2334 9.95145L96.2863 9.85696L96.3203 9.75869L96.3506 9.65665L96.3732 9.55082L96.3959 9.42232L96.4299 9.29759L96.4677 9.17665L96.5169 9.06326L96.566 8.95366L96.6302 8.84783L96.6983 8.74578L96.7663 8.64752L96.8457 8.55303L96.9326 8.46988L97.0271 8.38295L97.1216 8.31114L97.2198 8.23933L97.3295 8.17508L97.4391 8.11839L97.5524 8.06547L97.6167 8.03524L97.6734 8.005L97.7263 7.96721L97.783 7.93319L97.8321 7.89162L97.8775 7.84248L97.9153 7.78579L97.9531 7.72532L97.9909 7.65729L98.0211 7.5817L98.0438 7.50611L98.0589 7.42674L98.0665 7.34737V7.268L98.0513 7.19241L98.0362 7.11682L98.0135 7.04501L97.9833 6.9732L97.938 6.90517L97.9002 6.83713L97.8472 6.78044L97.7868 6.72375L97.7225 6.67462L97.6583 6.62926L96.5925 6.02454L96.5433 5.98675L96.4942 5.94895L96.4488 5.90738L96.4148 5.86202L96.377 5.81289L96.3543 5.76375L96.3241 5.71462L96.309 5.65415L96.2939 5.59746L96.2863 5.54076V5.48407L96.2939 5.4236L96.3014 5.36691L96.3165 5.31021L96.3392 5.25352L96.3695 5.19683L96.4072 5.14392L96.445 5.09478L96.4828 5.05699L96.5282 5.01919L96.5773 4.9814L96.6302 4.95116L96.6869 4.92848L96.7361 4.91336L96.7965 4.89825L96.8532 4.89069H96.9099L96.9742 4.89825L97.0309 4.90581L97.0876 4.92092L97.1405 4.9436L97.1972 4.97384L98.263 5.5899L98.3348 5.62769L98.4066 5.65793L98.4822 5.68061L98.5654 5.69572L98.6409 5.70328L98.7241 5.69572L98.7959 5.68816L98.8715 5.67305L98.9471 5.64281L99.0151 5.61257L99.0907 5.57856L99.155 5.53698L99.2116 5.48407L99.2683 5.42738L99.3175 5.36313L99.3628 5.29887L99.3931 5.23462L99.4233 5.17037L99.446 5.10612L99.4611 5.04187L99.4687 4.97762V4.84911L99.4611 4.78486L99.446 4.65636L99.4384 4.53164V4.41069L99.4535 4.28975L99.4687 4.16502L99.4989 4.04408L99.5291 3.93069L99.5707 3.81731L99.6236 3.70014L99.6727 3.59432L99.737 3.48471L99.8126 3.38644L99.8882 3.2844L99.9638 3.19369L100.062 3.10676L100.157 3.02739L100.24 2.95558L100.315 2.87999L100.376 2.78928L100.444 2.70613L100.493 2.61165L100.534 2.51338L100.565 2.41889L100.595 2.31306L100.61 2.21102L100.618 2.10519V2.00314L100.603 1.89732L100.58 1.78771L100.55 1.68945L100.508 1.5874L100.455 1.48913L100.395 1.39464L100.327 1.30016L100.251 1.22457L100.168 1.16032L100.085 1.09606L99.9978 1.03559L99.9033 0.994017L99.8012 0.948663L99.703 0.918427L99.6009 0.89575L99.4951 0.888191L99.3817 0.880632L99.2835 0.888191L99.1776 0.910868L99.068 0.933545L98.966 0.97134L98.845 1.01291L98.7241 1.04693L98.5994 1.06961L98.4784 1.09228L98.3537 1.09984H98.2252L98.1042 1.09228L97.9909 1.07717L97.8661 1.05449L97.7414 1.02425L97.628 0.986458L97.5146 0.937324L97.405 0.884411L97.2954 0.831498L97.1821 0.755908L97.08 0.684097L97.0309 0.650082L96.9742 0.612287L96.9137 0.582051L96.857 0.551814L96.7928 0.529137L96.7285 0.514019L96.6529 0.50646L96.5849 0.498901L96.5055 0.50646L96.4261 0.521578L96.3468 0.536696L96.2712 0.566933L96.2032 0.604728L96.1389 0.634964L96.0822 0.687877L96.0217 0.73701L95.965 0.793703L95.9235 0.857955L95.8781 0.922206L95.8479 0.997796L95.8176 1.06583L95.795 1.1452L95.7799 1.22457V2.5285L95.7723 2.58519L95.7647 2.64944L95.7496 2.70613L95.7269 2.76283L95.7043 2.81574L95.6702 2.86487L95.64 2.90645L95.5984 2.9518L95.5531 2.99338L95.5153 3.03117L95.4624 3.05763L95.4057 3.0803L95.3565 3.10298L95.2961 3.1181L95.2318 3.12566L95.1789 3.137ZM31.2675 30.735L31.0331 30.9428L30.8064 31.1431L30.5569 31.3359L30.315 31.5249L30.0618 31.7101L29.8048 31.8877L29.544 32.0616L29.2794 32.2241L29.0035 32.3904L28.7314 32.5491L28.4517 32.7003L28.1645 32.8401L27.8735 32.9762L27.5787 33.1047L27.2839 33.2332L26.9815 33.3466L26.6791 33.4638L26.3768 33.5734L26.0669 33.6716L25.7494 33.7661L25.4357 33.8493L25.1182 33.9286L24.8007 34.0042L24.4795 34.0647L24.162 34.1252L23.8294 34.1743L23.5081 34.2159L23.1831 34.2537L22.8505 34.2764L22.5217 34.299L22.1891 34.3141H21.8565L21.1686 34.299L20.477 34.2423L19.7966 34.1554L19.1315 34.042L18.4738 33.8833L17.8313 33.7056L17.1926 33.4902L16.5765 33.2445L15.9718 32.9724L15.3822 32.6701L14.8039 32.3412L14.2521 31.9897L13.7116 31.6118L13.1939 31.2112L12.6874 30.7803L12.215 30.3381L11.7539 29.8657L11.323 29.3743L10.911 28.8603L10.5217 28.3312L10.1627 27.7869L9.83009 27.22L9.52773 26.6417L9.24805 26.0446L8.9986 25.4323L8.77939 24.8087L8.59419 24.1662L8.43545 23.5161L8.31451 22.8585L8.22758 22.1933L8.17845 21.513L8.15577 20.8251L8.17089 20.2506L8.21246 19.6799L8.28427 19.113L8.37876 18.546L8.4997 17.9791L8.65089 17.4198L8.82474 16.8717L9.02506 16.335L9.24049 15.7946L9.48616 15.273L9.75072 14.7628L10.038 14.2639L10.3479 13.7763L10.6805 13.3039L11.0244 12.8428L11.391 12.4081L11.7728 11.9848L12.1772 11.5766L12.6005 11.1987L13.0351 10.8321L13.4887 10.4919L13.946 10.182L14.4298 9.8872L14.9249 9.62263L15.4313 9.38452L15.9491 9.17665L16.4745 8.99901L17.0149 8.84783L17.5667 8.72689L18.1223 8.63996L18.6893 8.59083L19.2675 8.56815H19.483L19.6908 8.57571L19.9063 8.59083L20.1217 8.6135L20.3333 8.63618L20.5488 8.66642L20.7642 8.69665L20.9721 8.73823L21.1875 8.78358L21.3954 8.82138L21.607 8.87429L21.8149 8.93098L22.0228 8.99523L22.2231 9.06326L22.4347 9.12374L22.6351 9.19933L22.8278 9.27492L23.0243 9.36185L23.2171 9.44877L23.4136 9.5357L23.6026 9.62641L23.7803 9.72846L23.9579 9.82672L24.1317 9.93633L24.3056 10.0422L24.4795 10.1518L24.6382 10.2651L24.7932 10.3861L24.9443 10.5108L25.0955 10.6393L25.2391 10.7678L25.379 10.8963L25.4281 10.9379L25.4772 10.9606L25.5339 10.9833H25.5944L25.6587 10.9757L25.7078 10.953L25.738 10.9379L25.7607 10.9228L25.7909 10.8925L25.8136 10.8699L33.4029 0.922206L33.4331 0.884411L33.4558 0.846616L33.4633 0.820159L33.4709 0.782364L33.4785 0.744569L33.4709 0.718113L33.4596 0.680318L33.4482 0.642523L33.4331 0.616066L33.4142 0.593389L33.3915 0.563153L33.3613 0.548035L33.3311 0.525358L33.2933 0.517799L33.263 0.51024L33.2252 0.502681H10.4424L10.3668 0.51024L10.2799 0.525358L10.2043 0.548035L10.1211 0.570712L10.0455 0.604728L9.96993 0.646302L9.90568 0.691656L9.84143 0.74079L9.36143 1.18299L8.88521 1.63653L8.41656 2.09385L7.96302 2.56629L7.52459 3.03873L7.09373 3.51873L6.67798 4.01384L6.27358 4.51652L5.87673 5.02297L5.50256 5.5332L5.13594 6.05478L4.78823 6.58391L4.45185 7.12438L4.12682 7.66485L3.8169 8.22043L3.52965 8.77602L3.24997 9.34295L2.98918 9.90987L2.7473 10.4881L2.51675 11.0777L2.30509 11.6636L2.11612 12.2683L1.93092 12.8654L1.77596 13.4853L1.62856 14.1013L1.50762 14.725L1.39801 15.3524L1.31486 15.9835L1.23927 16.6261L1.19014 17.2724L1.1599 17.9262L1.15234 18.5838L1.17502 19.5514L1.25061 20.5114L1.37156 21.4487L1.53029 22.3747L1.73817 23.2742L1.98761 24.1624L2.28242 25.0241L2.61501 25.8707L2.99296 26.6947L3.40115 27.4959L3.84713 28.2707L4.32713 29.0115L4.83736 29.7372L5.38539 30.4326L5.96744 31.0978L6.57972 31.7365L7.21467 32.345L7.88365 32.9195L8.57529 33.46L9.2934 33.9702L10.0342 34.4426L10.7976 34.8811L11.5838 35.2893L12.3888 35.6483L13.2165 35.9771L14.0594 36.2568L14.9135 36.5063L15.7828 36.7066L16.671 36.8653L17.5705 36.9787L18.4852 37.0543L19.4074 37.0732L19.8647 37.0656L20.3258 37.0467L20.7793 37.0165L21.2404 36.9749L21.694 36.9182L22.1399 36.854L22.5859 36.7746L23.0319 36.6877L23.4703 36.5894L23.9125 36.476L24.3434 36.3513L24.7743 36.2152L25.2013 36.0716L25.6246 35.9204L26.0328 35.7579L26.4524 35.5841L26.853 35.4064L27.2574 35.2137L27.6542 35.0134L28.0435 34.8055L28.4328 34.5901L28.807 34.3633L29.1812 34.1327L29.5478 33.8871L29.9068 33.6376L30.2583 33.3806L30.606 33.116L30.9462 32.8515L31.275 32.568L31.6 32.2846L31.9137 31.9897L32.2237 31.6874L32.2879 31.6269L32.3408 31.5513L32.39 31.4833L32.424 31.4077L32.4542 31.3397L32.4769 31.2641L32.492 31.2036L32.4996 31.128V31.0676L32.492 31.0071L32.4769 30.939L32.4542 30.8748L32.424 30.8257L32.3937 30.769L32.3559 30.7161L32.3144 30.6669L32.269 30.6329L32.2199 30.5913L32.1632 30.5611L32.1065 30.5309L32.046 30.5082L31.9818 30.4931L31.9175 30.4855L31.8533 30.4779L31.7815 30.4855L31.7059 30.4931L31.6378 30.5157L31.566 30.546L31.4867 30.5838L31.4149 30.6253L31.343 30.682L31.2675 30.735Z" fill="#6E7781"/>
<path id="Vector_2" d="M69.6058 60.2038H69.4547L69.3224 60.1887L69.2166 60.166L69.1221 60.1358L69.0427 60.0942L68.9671 60.0413L68.8991 59.9771L68.8348 59.9052L68.7252 59.7767L68.6194 59.6482L68.5816 59.6104L68.5514 59.5878L68.5136 59.5575L68.4758 59.5349L68.4304 59.5197L68.3889 59.5046L68.3359 59.4971L68.2868 59.4895L68.2112 59.4971L68.1432 59.5122L68.0789 59.5273L68.0185 59.5575L67.89 59.6218L67.7388 59.7011L67.5687 59.7767L67.3873 59.8599L67.1907 59.9317L66.9904 60.0035L66.7826 60.0678L66.5558 60.132L66.3366 60.1963L66.106 60.2454L65.8793 60.2945L65.6374 60.3399L65.3993 60.3815L65.1725 60.4117L64.9344 60.4419L64.7038 60.4571L64.4771 60.4722H64.2579L63.8761 60.4646L63.5095 60.4495L63.1467 60.4117L62.8027 60.3626L62.4739 60.2983L62.1489 60.2227L61.839 60.1245L61.5366 60.0111L61.2494 59.8901L60.9735 59.7465L60.7089 59.5878L60.4557 59.4101L60.2176 59.2174L59.9908 59.0095L59.7716 58.7827L59.5713 58.5371L59.3785 58.2725L59.1971 57.9853L59.0308 57.6829L58.8721 57.3616L58.736 57.0177L58.5999 56.6586L58.4865 56.2807L58.3732 55.8801L58.2824 55.4568L58.2069 55.0108L58.1313 54.5459L58.0746 54.0583L58.0292 53.5519L57.999 53.0228L57.9763 52.4672L57.9688 51.8889L57.9763 51.3295L58.0065 50.8004L58.0443 50.2826L58.1048 49.7913L58.1766 49.3075L58.2598 48.8577L58.3694 48.4231L58.4828 48.0149L58.615 47.6105L58.7662 47.2401L58.925 46.8811L59.1026 46.5447L59.2916 46.2234L59.4919 45.9211L59.7073 45.6414L59.9379 45.3768L60.1835 45.1274L60.433 44.9006L60.6976 44.6814L60.981 44.4924L61.2758 44.311L61.5782 44.1447L61.8881 44.0011L62.2207 43.8726L62.5571 43.7592L62.901 43.6571L63.2601 43.5816L63.6305 43.5135L64.0084 43.4568L64.3977 43.419L64.8021 43.4001L65.2141 43.3926L65.4408 43.4001L65.6676 43.4077L65.8906 43.4153L66.1136 43.4304L66.5445 43.4719L66.9602 43.5324L67.357 43.5891L67.7312 43.6609L68.0827 43.7365L68.4077 43.8197L68.7025 43.8953L68.9671 43.9708L69.1977 44.0389L69.3942 44.1031L69.6663 44.1976L69.7608 44.2316L69.2355 45.7737L69.2128 45.8304L69.1825 45.8795L69.1523 45.9248L69.1221 45.9589L69.0843 45.9891L69.0503 46.0118L69.0087 46.0193L68.9633 46.0269H68.9142L68.8651 46.0118L68.8159 45.9967L68.7555 45.974L68.627 45.9059L68.4833 45.8228L68.3246 45.7132L68.1659 45.6225L67.9996 45.528L67.8257 45.4411L67.6556 45.3693L67.4666 45.2974L67.2777 45.2332L67.0887 45.1765L66.8846 45.1274L66.6767 45.082L66.4651 45.0442L66.2421 45.0102L66.0191 44.9913L65.7848 44.9686L65.5467 44.9611L65.2934 44.9535L64.9835 44.9611L64.6812 44.9762L64.3864 45.0064L64.0991 45.0367L63.8194 45.0896L63.5473 45.1463L63.2865 45.2105L63.0333 45.2974L62.7876 45.3882L62.5533 45.4978L62.3265 45.6111L62.1149 45.7472L61.9032 45.8908L61.7029 46.0534L61.5139 46.2348L61.3363 46.4237L61.17 46.6278L61.0113 46.8546L60.8601 47.0927L60.724 47.3535L60.5955 47.6256L60.4821 47.9166L60.3687 48.2266L60.2705 48.5554L60.1835 48.8993L60.1117 49.2735L60.0475 49.659L59.9983 50.0596L59.953 50.4905L59.9228 50.9327L59.9076 51.4051L59.9001 51.8965L59.9076 52.3727L59.9152 52.8262L59.9379 53.2609L59.9681 53.6842L60.0059 54.0772L60.0437 54.4552L60.1042 54.8218L60.1684 55.1657L60.244 55.4983L60.3272 55.8045L60.4217 56.0993L60.5275 56.3714L60.6409 56.636L60.7656 56.8779L60.9092 57.1046L61.0604 57.3163L61.2267 57.509L61.4005 57.698L61.5857 57.8605L61.786 58.0193L62.0053 58.1553L62.232 58.2763L62.4777 58.3897L62.7385 58.4917L63.0031 58.5786L63.2903 58.6504L63.5927 58.7147L63.9101 58.7638L64.2427 58.8016L64.5942 58.8319L64.9608 58.847L65.3426 58.8545L65.5013 58.847H65.6525L65.8037 58.8319L65.9548 58.8243L66.2421 58.7903L66.5142 58.7487L66.7674 58.6958L67.0055 58.6391L67.2285 58.5749L67.4213 58.5106L67.6103 58.4464L67.769 58.3897L67.9051 58.3292L68.0185 58.2801L68.1772 58.2045L68.2263 58.1704L68.3133 58.1138L68.3889 58.0571L68.4531 58.0079L68.5098 57.955L68.5589 57.9059L68.6005 57.8567L68.6307 57.7963L68.661 57.7471L68.6837 57.6829L68.6988 57.6186L68.7139 57.5544L68.7214 57.4788L68.7366 57.2974V52.0741H69.9687L70.0254 52.0817H70.0821L70.135 52.0968L70.1841 52.1119L70.2295 52.127L70.2673 52.1497L70.3013 52.1799L70.3353 52.2102L70.358 52.2404L70.3882 52.282L70.4033 52.3273L70.4184 52.3689L70.4336 52.4256L70.4411 52.4785L70.4487 52.5428V60.2152L69.6058 60.2038ZM73.7482 60.2038H73.6839L73.6272 60.1963L73.5781 60.1887L73.529 60.1736L73.4836 60.1585L73.4458 60.1358L73.4118 60.1056L73.3816 60.0753L73.3513 60.0375L73.3287 60.0035L73.306 59.9619L73.2909 59.909L73.2758 59.8599L73.2682 59.8032L73.2606 59.7465V48.5289H74.0619L74.198 48.544L74.3113 48.5667L74.4058 48.5894L74.4436 48.6121L74.4776 48.6272L74.5117 48.6574L74.5419 48.6801L74.6024 48.7368L74.6515 48.8124L74.7649 48.9825L74.8594 49.1185L74.9047 49.1677L74.9539 49.213L74.9841 49.2281L75.0143 49.2357L75.0483 49.2433H75.1466L75.2071 49.2281L75.2638 49.213L75.3205 49.1941L75.4338 49.1261L75.585 49.0429L75.7249 48.9636L75.8685 48.8842L76.0197 48.8048L76.1784 48.7292L76.3485 48.6688L76.5223 48.6045L76.6962 48.5478L76.8852 48.4874L77.0704 48.4382L77.2631 48.3966L77.4597 48.3589L77.6524 48.3211L77.849 48.3022L78.0493 48.2795L78.2496 48.2719L78.4537 48.2644L78.5973 48.2719L78.7409 48.2795L78.8392 48.287H78.8845V49.9009L78.7901 49.8858L78.5519 49.8631L78.2269 49.8442L77.8867 49.8291L77.7545 49.8366H77.6335L77.5012 49.8518L77.3803 49.8593L77.1422 49.8971L76.9192 49.9349L76.7038 49.9954L76.5035 50.0521L76.3069 50.1163L76.1368 50.1881L75.963 50.2675L75.8118 50.3393L75.6757 50.4187L75.5472 50.4905L75.4338 50.5623L75.3431 50.6266L75.2676 50.6908L75.1995 50.7399L75.1126 50.8042L75.0559 50.8609L75.0143 50.9138L74.9765 50.9629L74.9614 51.0045L74.9539 51.065L74.9463 51.1292V60.2038H73.7482ZM84.9922 60.4759H84.6672L84.3535 60.4533L84.0511 60.423L83.7525 60.3815L83.4653 60.321L83.1932 60.2492L82.9286 60.1736L82.6678 60.0791L82.4222 59.9808L82.1841 59.8561L81.9611 59.7352L81.7381 59.5915L81.5378 59.4404L81.345 59.2778L81.156 59.0964L80.9784 58.9112L80.8121 58.7109L80.6609 58.503L80.5173 58.2801L80.3774 58.0457L80.2565 57.8001L80.1431 57.5431L80.0411 57.2785L79.9466 56.9988L79.8597 56.704L79.7954 56.4016L79.7312 56.0879L79.682 55.7667L79.6442 55.4265L79.6178 55.0864L79.6026 54.7273L79.5951 54.3607L79.6026 53.9979L79.6178 53.6388L79.648 53.2949L79.682 52.9547L79.7312 52.6373L79.7954 52.3198L79.8597 52.0174L79.9466 51.7339L80.0411 51.4543L80.1393 51.1821L80.2527 50.9327L80.3774 50.6795L80.5173 50.4527L80.6609 50.2259L80.8121 50.0143L80.9784 49.814L81.156 49.625L81.345 49.4473L81.5378 49.2848L81.7381 49.1336L81.9648 48.9976L82.1841 48.8691L82.4222 48.7481L82.6678 48.6461L82.9248 48.5516L83.1894 48.4685L83.4653 48.4042L83.7525 48.3437L84.0511 48.3022L84.3535 48.2644L84.6672 48.253L84.9922 48.2455L85.3173 48.253L85.6234 48.2681L85.9333 48.3022L86.2319 48.3437L86.5116 48.4042L86.7913 48.4685L87.0558 48.544L87.3091 48.6385L87.5547 48.7481L87.7928 48.8615L88.0196 48.99L88.2388 49.1261L88.4391 49.2848L88.6395 49.4436L88.8209 49.6212L89.0023 49.8064L89.1686 50.0067L89.3198 50.2146L89.4709 50.4376L89.5994 50.6719L89.7279 50.9176L89.8376 51.1746L89.9434 51.4391L90.0303 51.7264L90.1172 52.0136L90.1928 52.316L90.2457 52.6297L90.2949 52.951L90.3327 53.2873L90.3591 53.6313L90.3742 53.9903L90.3818 54.3607L90.3742 54.7273L90.3591 55.0864L90.3289 55.4265L90.2949 55.7667L90.2457 56.0879L90.189 56.4054L90.1172 56.7078L90.0303 56.9988L89.9434 57.2785L89.8376 57.5431L89.7279 57.8001L89.5994 58.0457L89.4672 58.2801L89.316 58.503L89.1648 58.7109L89.0023 58.9112L88.8209 59.1002L88.6395 59.2778L88.4391 59.4404L88.2388 59.5915L88.0234 59.7352L87.7928 59.8561L87.5547 59.9771L87.3091 60.0791L87.0558 60.1736L86.7913 60.2492L86.5116 60.3248L86.2319 60.3815L85.9333 60.4193L85.6234 60.4533L85.3173 60.4759H84.9922ZM84.9922 49.6288H84.7692L84.5538 49.6477L84.3421 49.6779L84.1418 49.7081L83.9491 49.7497L83.7601 49.7988L83.5787 49.8631L83.4086 49.9387L83.2423 50.0143L83.0836 50.1012L82.9324 50.1995L82.7888 50.3091L82.6527 50.4225L82.5242 50.551L82.3995 50.687L82.2861 50.8306L82.1765 50.9818L82.0782 51.1481L81.9837 51.3182L81.8968 51.4958L81.8212 51.6848L81.7381 51.8851L81.6738 52.093L81.6171 52.3084L81.568 52.5352L81.5151 52.7733L81.4773 53.0152L81.447 53.2684L81.4168 53.533L81.4017 53.7976L81.3866 54.0772V54.6555L81.4017 54.9352L81.4168 55.2073L81.447 55.4643L81.4773 55.7251L81.5151 55.967L81.568 56.2051L81.6171 56.4243L81.6738 56.6397L81.7381 56.8476L81.8174 57.0479L81.8968 57.2445L81.9837 57.4221L82.0782 57.5922L82.1765 57.7509L82.2861 57.9097L82.3995 58.0533L82.5242 58.1893L82.6527 58.3103L82.7888 58.4237L82.9324 58.5333L83.0836 58.6315L83.2423 58.726L83.4086 58.8016L83.5787 58.8697L83.7601 58.9339L83.9491 58.983L84.1418 59.0246L84.3421 59.0624L84.5538 59.0813L84.7692 59.0964L84.996 59.104L85.2152 59.0964L85.4231 59.0813L85.6347 59.0586L85.8351 59.0246L86.0278 58.983L86.2168 58.9339L86.3944 58.8697L86.5683 58.8054L86.7346 58.726L86.8933 58.6315L87.0445 58.5333L87.1881 58.4237L87.3242 58.3103L87.4527 58.1893L87.5774 58.0533L87.6908 57.9097L87.8004 57.7509L87.8987 57.5922L87.9931 57.4221L88.0801 57.2445L88.167 57.0479L88.2388 56.8476L88.3031 56.6397L88.3598 56.4243L88.4165 56.2051L88.4618 55.967L88.4996 55.7251L88.5298 55.4643L88.5601 55.2073L88.5752 54.9352L88.5903 54.6555V54.0772L88.5752 53.7976L88.5601 53.533L88.5298 53.2684L88.4996 53.0152L88.4618 52.7733L88.4165 52.5352L88.3598 52.3084L88.3031 52.093L88.2388 51.8851L88.167 51.6848L88.0801 51.4958L87.9931 51.3182L87.8987 51.1481L87.8004 50.9818L87.6908 50.8306L87.5774 50.687L87.4527 50.551L87.3242 50.4225L87.1881 50.3091L87.0445 50.1995L86.8933 50.1012L86.7346 50.0143L86.5683 49.9387L86.3944 49.8631L86.2168 49.7988L86.0278 49.7497L85.8351 49.7081L85.6347 49.6779L85.4231 49.6477L85.2152 49.6325L84.9922 49.6288ZM101.119 60.2038H100.964L100.825 60.1963L100.711 60.1736L100.624 60.1434L100.583 60.1282L100.545 60.1056L100.507 60.0829L100.481 60.0526L100.42 59.9959L100.371 59.9317L100.258 59.7503L100.163 59.6142L100.118 59.5651L100.069 59.5311L100.038 59.516L100.008 59.5084L99.9704 59.5008L99.9364 59.4933L99.8721 59.5008L99.8154 59.5084L99.755 59.5235L99.7058 59.5537L99.5849 59.6104L99.4337 59.7049L99.3014 59.7805L99.1503 59.8599L98.9991 59.9355L98.8441 60.0035L98.6778 60.0678L98.5115 60.1358L98.3377 60.2L98.16 60.2492L97.9711 60.2983L97.7821 60.3437L97.5969 60.3852L97.4079 60.4155L97.2151 60.4457L97.0224 60.4608L96.8259 60.4759H96.3799L96.1304 60.4608L95.8923 60.4457L95.6618 60.4155L95.435 60.3852L95.2233 60.3437L95.0117 60.2908L94.8114 60.2341L94.6186 60.1774L94.4372 60.1018L94.2596 60.0262L94.0933 59.9393L93.9345 59.8486L93.7834 59.7465L93.6397 59.6331L93.5037 59.5197L93.3714 59.395L93.258 59.2589L93.1446 59.1229L93.0426 58.9717L92.9481 58.8167L92.8612 58.658L92.7856 58.4879L92.71 58.3065L92.6533 58.1175L92.5966 57.921L92.5512 57.7207L92.5172 57.5053L92.487 57.2823L92.4643 57.0593L92.4492 56.8249V48.5365H93.7191L93.7758 48.544L93.8249 48.5516L93.8741 48.5667L93.9194 48.5856L93.9534 48.6083L93.9874 48.631L94.0177 48.6612L94.0479 48.699L94.0668 48.7368L94.0895 48.7746L94.1046 48.8275L94.1197 48.8766L94.1273 48.9371V49.0014L94.1348 49.0656V56.3147L94.1424 56.4961L94.15 56.6775L94.1651 56.8401L94.1878 56.9988L94.2104 57.1575L94.2407 57.2974L94.2747 57.441L94.3125 57.5771L94.3541 57.7018L94.4032 57.8227L94.4637 57.9361L94.5204 58.0419L94.5846 58.144L94.664 58.2385L94.7434 58.3216L94.8227 58.4086L94.9172 58.4841L95.0155 58.5522L95.1251 58.624L95.2347 58.6807L95.3556 58.7298L95.4766 58.7827L95.6164 58.8243L95.7563 58.8621L95.9074 58.8999L96.0662 58.9188L96.2325 58.9415L96.4063 58.9641L96.5953 58.9717L96.7805 58.9793L96.9808 58.9868L97.1244 58.9793H97.2681L97.4079 58.9641L97.544 58.9566L97.801 58.9188L98.0466 58.8772L98.2772 58.8205L98.4926 58.7601L98.6967 58.6958L98.8819 58.624L99.0558 58.5484L99.2145 58.4728L99.3506 58.3972L99.4791 58.3216L99.5887 58.2536L99.6832 58.1893L99.7588 58.1251L99.8268 58.0722L99.9137 58.0079L99.9704 57.9437L100.02 57.8945L100.05 57.8454L100.065 57.7849L100.072 57.7282L100.08 57.664V48.5365H101.346L101.407 48.544L101.456 48.5516L101.505 48.5667L101.546 48.5856L101.584 48.6083L101.622 48.631L101.66 48.6612L101.675 48.699L101.705 48.7406L101.72 48.7784L101.735 48.8313L101.751 48.8804L101.758 48.9371L101.766 49.0014V60.2038H101.119ZM104.74 64.2366H104.683L104.627 64.229L104.574 64.2214L104.525 64.2063L104.483 64.1912L104.438 64.1685L104.408 64.1383L104.374 64.1081L104.351 64.074L104.321 64.04L104.306 63.9985L104.29 63.9455L104.275 63.8964L104.268 63.8397L104.26 63.783V48.5365H105.058L105.194 48.5516L105.311 48.5743L105.398 48.597L105.439 48.6196L105.477 48.6348L105.504 48.665L105.541 48.6877L105.598 48.7444L105.651 48.8199L105.764 48.99L105.859 49.1261L105.9 49.1752L105.953 49.2206L105.984 49.2357L106.014 49.2433L106.048 49.2508H106.146L106.207 49.2357L106.263 49.2206L106.312 49.2017L106.437 49.1336L106.581 49.0505L106.717 48.9711L106.868 48.8918L107.019 48.8124L107.178 48.7368L107.344 48.6763L107.514 48.6121L107.696 48.5554L107.885 48.4949L108.074 48.4458L108.259 48.4042L108.448 48.3664L108.652 48.3286L108.848 48.3097L109.049 48.287L109.253 48.2795L109.453 48.2719L109.695 48.2795L109.941 48.2946L110.179 48.3248L110.417 48.3589L110.644 48.408L110.871 48.4722L111.093 48.544L111.309 48.6234L111.517 48.7255L111.725 48.8313L111.921 48.9447L112.114 49.077L112.303 49.2168L112.481 49.3755L112.654 49.5381L112.821 49.7195L112.979 49.9122L113.123 50.1125L113.267 50.3355L113.395 50.5623L113.516 50.8004L113.633 51.0574L113.743 51.322L113.837 51.6092L113.921 51.904L113.996 52.2102L114.06 52.5352L114.11 52.864L114.151 53.2155L114.181 53.5821L114.204 53.9525L114.212 54.3456L114.204 54.7349L114.181 55.1128L114.147 55.4719L114.106 55.8234L114.049 56.1598L113.981 56.481L113.905 56.7909L113.811 57.0933L113.709 57.3692L113.603 57.6413L113.478 57.8983L113.35 58.144L113.214 58.3783L113.063 58.6051L112.911 58.8092L112.745 59.0019L112.579 59.1834L112.401 59.3534L112.22 59.5122L112.031 59.6558L111.842 59.7919L111.638 59.9128L111.434 60.0186L111.226 60.1207L111.01 60.2038L110.795 60.2794L110.576 60.3437L110.356 60.3928L110.13 60.4268L109.907 60.4571L109.68 60.4797H109.234L109.015 60.4646L108.807 60.4419L108.607 60.4117L108.402 60.3739L108.214 60.3437L108.025 60.2945L107.836 60.2416L107.654 60.1849L107.484 60.1282L107.31 60.064L107.144 59.9884L106.834 59.8561L106.539 59.7125L106.433 59.6558L106.331 59.6104L106.29 59.5953L106.252 59.5802L106.207 59.5726H106.139L106.116 59.5802L106.086 59.5878L106.063 59.6029L106.04 59.618L106.025 59.6331L106.003 59.6634L105.987 59.686L105.965 59.7503L105.95 59.8372L105.934 59.9393V64.2441L104.74 64.2366ZM105.95 57.5846V57.732L105.965 57.7887L105.98 57.8492L106.01 57.8983L106.059 57.9475L106.12 58.0117L106.203 58.076L106.343 58.1893L106.543 58.3292L106.656 58.3972L106.792 58.4766L106.94 58.5522L107.106 58.6278L107.276 58.7034L107.458 58.7638L107.658 58.8205L107.866 58.881L108.093 58.9226L108.319 58.9604L108.444 58.9679L108.565 58.983H108.686L108.818 58.9906L109.007 58.983L109.185 58.9755L109.366 58.9528L109.544 58.9301L109.718 58.8961L109.888 58.8545L110.054 58.8092L110.213 58.7525L110.379 58.6807L110.53 58.6089L110.682 58.5219L110.825 58.4312L110.969 58.3292L111.105 58.2234L111.237 58.1024L111.358 57.9664L111.483 57.8303L111.596 57.6791L111.698 57.5128L111.796 57.3427L111.891 57.1538L111.978 56.9648L112.053 56.7607L112.137 56.5377L112.193 56.3109L112.25 56.0728L112.303 55.8158L112.341 55.5513L112.375 55.2791L112.397 54.9843L112.413 54.682L112.42 54.3683L112.413 54.0886L112.405 53.824L112.39 53.5594L112.36 53.31L112.329 53.0643L112.292 52.83L112.242 52.6032L112.19 52.384L112.133 52.1762L112.069 51.9758L111.997 51.7831L111.921 51.5941L111.831 51.424L111.74 51.2502L111.638 51.0952L111.528 50.944L111.422 50.808L111.301 50.6719L111.169 50.551L111.041 50.4376L110.897 50.3242L110.753 50.2335L110.595 50.139L110.436 50.0634L110.27 49.9992L110.099 49.9349L109.911 49.882L109.722 49.8404L109.529 49.8102L109.336 49.7799L109.124 49.7648H108.765L108.629 49.7724L108.493 49.7799L108.365 49.7951L108.111 49.8253L107.873 49.8744L107.658 49.9236L107.45 49.9878L107.261 50.0521L107.087 50.1277L106.925 50.1957L106.781 50.2751L106.649 50.3544L106.535 50.4262L106.339 50.5623L106.203 50.6719L106.131 50.7324L106.074 50.7853L106.033 50.8344L106.003 50.8836L105.972 50.9365L105.957 50.9932L105.95 51.065V51.1519V57.5846Z" fill="#6E7781"/>
</g>
</g>
<defs>
<clipPath id="clip0_1745_31313">
<rect width="115.377" height="64.743" fill="white" transform="translate(0.654297)"/>
</clipPath>
</defs>
</svg>
