<svg width="139" height="35" viewBox="0 0 139 35" fill="none" xmlns="../../../../../../../www.w3.org/2000/svg.html">
<g id="dd_logo_h_white 1" clip-path="url(#clip0_1745_31332)">
<g id="Group">
<g id="Group_2">
<path id="Vector" d="M29.382 17.4232L19.9004 19.1502C19.6586 19.4611 19.0887 19.9792 18.8124 20.1174C17.6207 20.7219 16.809 20.5492 16.1009 20.3592C15.6518 20.2383 15.3928 20.1865 15.0128 20.0138L12.6986 20.3246L14.0975 32.0514L30.3492 29.1154L29.382 17.4232ZM14.9092 30.9461L14.771 29.6681L17.4307 25.6267L20.4358 26.5075L23.0264 22.1726L26.1352 24.2278L28.5012 19.2711L29.3475 28.2864L14.9092 30.9461ZM14.2356 19.4266C13.0612 18.6666 11.8523 17.5959 11.3169 16.9914C11.2305 16.9223 11.2478 16.6287 11.2478 16.6287C11.7314 17.0087 13.7175 18.4249 15.8073 19.0639C16.5499 19.2884 17.6898 19.3747 18.6742 18.8221C19.4341 18.3903 20.3322 17.6477 20.8676 16.8878L20.9712 17.0605C20.9712 17.1814 20.7122 17.734 20.5913 17.9586C20.8158 18.0967 20.9885 18.1313 21.2475 18.2003L22.9919 17.924C23.6136 16.9223 24.0627 15.2989 23.5791 13.7445C23.3028 12.8637 21.8866 11.0848 21.7829 10.9985C21.4203 10.653 21.8348 9.34047 21.1439 7.88974C20.4013 6.36991 18.4497 4.78101 17.6034 4.07291C17.8452 4.24562 19.3823 4.86736 20.0904 5.7309C20.1595 5.64455 20.194 5.17824 20.2458 5.05734C19.6241 4.26289 19.5896 2.82942 19.5896 2.44947C19.5896 1.74137 19.2269 0.946916 19.2269 0.946916C19.2269 0.946916 19.8486 1.4305 20.0041 2.27676C20.194 3.26119 20.5913 4.05564 21.1267 4.71193C22.1284 5.95542 23.0264 6.59443 23.4927 6.12812C24.0454 5.57546 22.9401 3.10575 21.5411 1.7241C19.9004 0.117923 19.4687 0.325171 18.5188 0.670585C17.7589 0.929645 17.3444 3.12302 15.341 3.07121C14.9956 3.03667 14.132 3.00213 13.7003 3.0194C13.9248 2.70853 14.1148 2.46674 14.1148 2.46674C14.1148 2.46674 13.4412 2.74307 12.8713 3.08848L12.8194 3.0194C13.0094 2.6049 13.2167 2.36311 13.2167 2.36311C13.2167 2.36311 12.6813 2.69126 12.1977 3.07121C12.2841 2.58763 12.6295 2.27676 12.6295 2.27676C12.6295 2.27676 11.9559 2.39765 11.0924 3.34754C10.1079 3.6066 9.88343 3.79658 9.08898 4.14199C7.81095 3.86566 7.22374 3.41663 6.65381 2.58763C6.22204 1.96589 5.44486 1.86226 4.65041 2.19041C3.49327 2.67399 2.04254 3.313 2.04254 3.313C2.04254 3.313 2.52611 3.29573 3.00969 3.313C2.33614 3.57206 1.67985 3.91748 1.67985 3.91748C1.67985 3.91748 1.99072 3.9002 2.38795 3.91748C2.11162 4.14199 1.97345 4.24562 1.71439 4.41833C1.09265 4.86736 0.591797 5.38548 0.591797 5.38548C0.591797 5.38548 1.00629 5.19551 1.38625 5.09188C1.12719 5.69636 0.591797 6.1454 0.695421 6.88804C0.781775 7.56159 1.61077 8.96052 2.69882 9.82405C2.78518 9.89314 4.25318 11.2575 5.35851 10.7049C6.46383 10.1522 6.8956 9.65135 7.08558 8.89144C7.29283 8.01063 7.17193 7.35434 6.72289 5.45457C6.56746 4.83282 6.1875 3.53752 5.99752 2.93305L6.03207 2.8985C6.39475 3.65842 7.3101 5.67909 7.69005 7.0262C8.27726 9.13323 8.08728 10.204 7.82822 10.6012C7.0165 11.7756 4.96128 11.9483 4.02867 11.2921C3.8905 13.5545 4.39135 14.5562 4.56406 15.0571C4.4777 15.627 4.85766 16.7151 4.85766 16.7151C4.85766 16.7151 4.8922 16.2315 5.06491 15.9724C5.11672 16.5424 5.39305 17.2332 5.39305 17.2332C5.39305 17.2332 5.37578 16.8187 5.51394 16.456C5.70392 16.7669 5.84209 16.836 6.01479 17.0777C6.1875 17.6995 6.53292 18.1485 6.53292 18.1485C6.53292 18.1485 6.4811 17.8204 6.49837 17.475C7.36191 18.304 7.50007 19.5129 7.58643 20.4283C7.82822 22.9671 3.57963 24.9877 2.75063 26.5766C2.12889 27.5092 1.74893 29.0118 2.80245 29.8926C5.35851 32.0169 4.37408 32.6041 5.65211 33.5367C7.41372 34.8147 9.6071 34.2448 10.3497 33.2086C11.386 31.7578 11.1269 30.3935 10.7297 29.1154C10.4188 28.1137 9.6071 26.4557 8.58813 25.8167C7.55189 25.1604 6.53292 25.0395 5.68665 25.1259L5.77301 25.0395C6.99922 24.7977 8.29453 24.9359 9.22714 25.5231C10.2807 26.1967 11.2478 27.3711 11.7487 29.15C12.3186 29.0636 12.405 29.0291 12.9231 28.96L11.7314 19.7029L14.2356 19.4266ZM20.1595 7.90701C21.2475 8.40786 21.1094 9.37501 21.1267 9.94495C21.1439 10.1004 21.1267 10.2213 21.1094 10.2904C20.9539 10.204 20.7294 10.1522 20.3495 10.1695C20.2458 10.1695 20.125 10.1867 20.0213 10.204C19.6241 9.99676 19.3823 9.56499 19.1578 9.11595C19.1405 9.08141 19.1233 9.0296 19.106 8.99506C19.106 8.97779 19.0887 8.96052 19.0887 8.94325V8.92598C18.9678 8.54602 19.0542 8.45967 19.106 8.35604C19.1578 8.25242 19.3478 8.13152 19.0714 8.04517C19.0542 8.04517 19.0196 8.0279 18.9851 8.0279C19.1751 7.78611 19.745 7.71703 20.1595 7.90701ZM18.8124 14.2281C19.0196 14.0726 19.9868 13.7618 20.8849 13.6409C21.3512 13.5891 22.0247 13.5545 22.1629 13.6409C22.4392 13.7963 22.4392 14.2799 22.2492 14.7289C21.9729 15.3852 21.5757 16.0933 21.1094 16.1451C20.3667 16.2488 19.6759 15.8515 18.8815 15.2471C18.6051 15.0398 18.4324 14.5217 18.8124 14.2281ZM11.835 9.30593C13.0094 8.51148 14.512 8.82235 14.2529 9.06414C13.7693 9.53045 14.4084 9.39229 14.4774 10.2385C14.5292 10.8603 14.322 11.2057 14.1493 11.3957C13.7866 11.4475 13.3376 11.5339 12.8022 11.7066C12.4913 11.8102 12.215 11.9138 11.9732 12.0347C11.9041 12.0002 11.835 11.9483 11.7659 11.8793C10.9542 11.1539 10.9888 9.89314 11.835 9.30593Z" fill="#6E7781"/>
</g>
<g id="Group_3">
<path id="Vector_2" fill-rule="evenodd" clip-rule="evenodd" d="M43.5447 24.9188H36.9473V9.72058H43.5447C48.2941 9.72058 50.6775 12.1212 50.6775 16.9052C50.6775 22.2418 48.3114 24.9188 43.5447 24.9188ZM39.7797 22.4664H43.1302C46.2907 22.4664 47.8623 20.6184 47.8623 16.9052C47.8623 13.7447 46.2907 12.173 43.1302 12.173H39.7797V22.4664Z" fill="#6E7781"/>
<path id="Vector_3" fill-rule="evenodd" clip-rule="evenodd" d="M53.6323 24.9188H50.748L57.2073 9.72058H60.2469L66.8443 24.9188H63.8047L61.8876 20.7738H57.0173L57.9845 18.3387H61.145L58.658 12.6221L53.6323 24.9188Z" fill="#6E7781"/>
<path id="Vector_4" fill-rule="evenodd" clip-rule="evenodd" d="M65.2363 9.72058H76.7904V12.173H72.4382V24.9188H69.6058V12.173H65.2363V9.72058Z" fill="#6E7781"/>
<path id="Vector_5" fill-rule="evenodd" clip-rule="evenodd" d="M78.2413 24.9188H75.3398L81.8164 9.72058H84.8387L91.4361 24.9188H88.4138L86.4967 20.7738H81.6091L82.5763 18.3387H85.7368L83.2498 12.6221L78.2413 24.9188Z" fill="#6E7781"/>
<path id="Vector_6" fill-rule="evenodd" clip-rule="evenodd" d="M99.9158 24.9188H93.3184V9.72058H99.9158C104.665 9.72058 107.049 12.1212 107.049 16.9052C107.049 22.2418 104.665 24.9188 99.9158 24.9188ZM96.1335 22.4664H99.484C102.645 22.4664 104.216 20.6184 104.216 16.9052C104.216 13.7447 102.627 12.173 99.484 12.173H96.1335V22.4664Z" fill="#6E7781"/>
<path id="Vector_7" fill-rule="evenodd" clip-rule="evenodd" d="M108.967 17.3371C108.967 12.1904 111.523 9.61707 116.618 9.61707C121.626 9.61707 124.148 12.1904 124.148 17.3371C124.148 22.4665 121.643 25.0225 116.618 25.0225C111.73 25.0225 109.191 22.4665 108.967 17.3371ZM116.6 22.5701C119.657 22.5701 121.194 20.8085 121.194 17.268C121.194 13.7793 119.657 12.0522 116.6 12.0522C113.457 12.0522 111.886 13.7966 111.886 17.268C111.886 20.8085 113.457 22.5701 116.6 22.5701Z" fill="#6E7781"/>
<path id="Vector_8" fill-rule="evenodd" clip-rule="evenodd" d="M135.891 18.7705V22.3283C135.235 22.501 134.665 22.5874 134.147 22.5874C130.692 22.5874 128.965 20.7567 128.965 17.1125C128.965 13.7448 130.796 12.0695 134.44 12.0695C135.96 12.0695 137.376 12.3458 138.706 12.9158V10.3597C137.393 9.85886 135.908 9.61707 134.233 9.61707C128.775 9.61707 126.029 12.104 126.029 17.1125C126.029 22.3974 128.706 25.0225 134.095 25.0225C135.943 25.0225 137.48 24.7462 138.706 24.2108V16.2663H134.147L133.197 18.7705H135.891Z" fill="#6E7781"/>
</g>
</g>
</g>
<defs>
<clipPath id="clip0_1745_31332">
<rect width="138.252" height="33.8851" fill="white" transform="translate(0.505859 0.428955)"/>
</clipPath>
</defs>
</svg>
