<svg width="207" height="44" viewBox="0 0 207 44" fill="none" xmlns="../../../../../../../www.w3.org/2000/svg.html">
<g id="HashiCorp" clip-path="url(#clip0_1745_31298)">
<g id="Group">
<path id="Vector" d="M51.8691 10.8909H56.1846V20.1731H66.1182V10.8909H70.515V33.6893H66.1182V24.0814H56.1846V33.6893H51.8691V10.8909Z" fill="#6E7781"/>
<path id="Vector_2" d="M73.2832 29.2925C73.2832 25.8728 75.7259 24.7329 78.6571 24.0815L83.6239 22.9416V22.5344C83.6239 20.906 82.5654 19.8475 80.8555 19.8475C79.1456 19.8475 78.0872 20.8246 77.7615 22.3716L74.016 21.9645C74.586 18.8704 77.1915 16.8348 80.937 16.8348C85.0895 16.8348 87.7765 19.4404 87.7765 23.2673V29.9439C87.7765 30.351 87.9393 30.5139 88.1836 30.5139H89.0792V33.8522H86.5551C84.9267 33.8522 84.2753 33.3637 84.2753 32.0609C84.2753 31.6538 84.3567 31.2467 84.5196 30.5953L84.1939 30.4325C83.0539 32.9566 81.2626 34.0965 78.82 34.0965C75.4002 33.9337 73.2832 32.0609 73.2832 29.2925ZM79.8785 30.921C81.9955 30.921 83.5425 29.374 83.5425 26.8499V25.5471L79.9599 26.3613C78.1686 26.7684 77.4358 27.4198 77.4358 28.804C77.4358 30.1882 78.4128 30.921 79.8785 30.921Z" fill="#6E7781"/>
<path id="Vector_3" d="M90.627 29.2111L94.6167 28.3969C95.0238 30.1882 96.408 31.0024 98.2807 31.0024C100.153 31.0024 101.212 30.2696 101.212 28.9669C101.212 27.6641 99.9906 27.4198 97.6293 27.0127C94.6981 26.5242 90.8712 26.0356 90.8712 21.8831C90.8712 18.789 93.4768 16.672 97.7922 16.672C101.619 16.672 104.55 18.3005 105.202 21.476L101.212 22.1273C100.886 20.4989 99.5021 19.6846 97.7922 19.6846C95.838 19.6846 94.9424 20.4989 94.9424 21.6388C94.9424 22.9416 96.2451 23.1858 98.525 23.5929C101.456 24.0815 105.283 24.57 105.283 28.7226C105.283 31.9795 102.678 34.0965 98.2807 34.0965C94.291 34.0965 91.3598 32.468 90.627 29.2111Z" fill="#6E7781"/>
<path id="Vector_4" d="M112.041 33.6893H107.807V10.2395H112.041V17.5676C112.041 18.3818 111.878 19.196 111.634 20.4174L112.041 20.5802C113.018 18.1375 114.565 16.7533 117.415 16.7533C120.997 16.7533 122.951 19.0332 122.951 22.9415V33.7707H118.717V23.0229C118.717 21.1502 117.74 20.0917 115.868 20.0917C113.751 20.0917 112.041 21.7201 112.041 24.5699V33.6893Z" fill="#6E7781"/>
<path id="Vector_5" d="M131.664 29.4553C131.664 30.1067 131.908 30.2695 132.397 30.2695H134.27V33.6079H130.443C128.489 33.6079 127.512 32.5494 127.512 30.5138V20.4988H125.15V17.1605H131.746V29.4553H131.664ZM126.86 12.6822C126.86 11.2166 128 10.0767 129.466 10.0767C130.931 10.0767 132.071 11.2166 132.071 12.6822C132.071 14.1478 130.931 15.2877 129.466 15.2877C128 15.2877 126.86 14.1478 126.86 12.6822Z" fill="#6E7781"/>
<path id="Vector_6" d="M135.654 22.2901C135.654 15.4506 140.133 10.4838 146.646 10.4838C152.102 10.4838 155.847 13.6593 156.906 17.8933L152.59 18.9517C151.776 15.9391 149.822 14.2292 146.646 14.2292C142.657 14.2292 140.133 17.4861 140.133 22.2087C140.133 26.9312 142.738 30.1881 146.809 30.1881C149.985 30.1881 151.939 28.4782 152.753 25.3027L156.824 25.7913C155.847 30.9209 152.102 34.015 146.728 34.015C140.133 34.0964 135.654 29.1296 135.654 22.2901Z" fill="#6E7781"/>
<path id="Vector_7" d="M158.615 25.3841C158.615 20.3359 162.198 16.7533 167.083 16.7533C171.969 16.7533 175.551 20.3359 175.551 25.3841C175.551 30.4323 171.969 34.0964 167.083 34.0964C162.198 34.0964 158.615 30.4323 158.615 25.3841ZM171.317 25.3841C171.317 22.2901 169.689 20.1731 167.083 20.1731C164.478 20.1731 162.849 22.2901 162.849 25.3841C162.849 28.4782 164.559 30.5952 167.083 30.5952C169.607 30.5952 171.317 28.5596 171.317 25.3841Z" fill="#6E7781"/>
<path id="Vector_8" d="M178.156 17.1604H182.065V17.8118C182.065 18.7074 182.065 19.4402 181.739 20.743L182.146 20.8244C182.797 18.626 183.937 17.1604 186.543 17.1604H187.764V21.2315H186.054C183.693 21.2315 182.39 22.6972 182.39 25.3027V33.6893H178.156V17.1604Z" fill="#6E7781"/>
<path id="Vector_9" d="M189.799 17.1604H193.951V17.8932C193.951 18.626 193.87 19.196 193.626 20.5802L194.033 20.6616C195.01 18.0561 196.964 16.7533 199.407 16.7533C203.478 16.7533 206.653 20.0916 206.653 25.3841C206.653 30.6766 203.478 34.0964 199.407 34.0964C196.964 34.0964 195.173 32.7936 194.114 30.1881L193.789 30.3509C193.951 31.6537 194.033 32.3051 194.033 32.9565V40.3659H189.799V17.1604ZM202.419 25.3841C202.419 22.1272 200.628 20.1731 198.185 20.1731C195.743 20.1731 193.951 22.1272 193.951 25.3841C193.951 28.641 195.743 30.5952 198.185 30.5952C200.628 30.5952 202.419 28.641 202.419 25.3841Z" fill="#6E7781"/>
</g>
<g id="Group_2">
<path id="Vector_10" d="M17.5088 0.957275L0.654297 10.728V34.0964L6.92386 37.7604V14.3921L17.5088 8.28534V0.957275Z" fill="#6E7781"/>
<path id="Vector_11" d="M24.2673 0.957275V19.6031H17.5092V12.6008L11.1582 16.2648V40.1217L17.5092 43.7857V25.2213H24.2673V32.1423L30.5369 28.4782V4.62131L24.2673 0.957275Z" fill="#6E7781"/>
<path id="Vector_12" d="M24.2676 43.7858L41.1221 34.0965V10.7281L34.7711 7.06409V30.4325L24.2676 36.5392V43.7858Z" fill="#6E7781"/>
</g>
</g>
<defs>
<clipPath id="clip0_1745_31298">
<rect width="206" height="42.8285" fill="white" transform="translate(0.654297 0.957275)"/>
</clipPath>
</defs>
</svg>
