<svg width="169" height="33" viewBox="0 0 169 33" fill="none" xmlns="../../../../../../../www.w3.org/2000/svg.html">
<g id="Otto_Group_Logo_2022 1" clip-path="url(#clip0_1745_31330)">
<path id="Vector" fill-rule="evenodd" clip-rule="evenodd" d="M27.6668 0.37146H23.6706V3.83586H21.0366V7.47462H23.6706L23.6707 14.8975C23.6707 15.9572 23.7114 16.7986 23.9246 17.5575C24.1416 18.3299 24.5299 18.9932 25.1839 19.7199C26.5473 21.2349 28.3593 21.4186 29.8908 21.4186H31.7595V17.7949H29.8908C29.3219 17.7949 28.9192 17.6803 28.6298 17.5108C28.3426 17.3426 28.1416 17.1057 27.9982 16.8169C27.7008 16.2178 27.6631 15.4252 27.6631 14.6604V7.47462H30.4806H32.3967H33.1146L33.1147 14.8975C33.1147 15.9572 33.1554 16.7986 33.3686 17.5575C33.5856 18.3299 33.9739 18.9932 34.6279 19.7199C35.9914 21.2349 37.8033 21.4186 39.3348 21.4186H41.2035V17.7949H39.3348C38.7659 17.7949 38.3633 17.6803 38.0738 17.5108C37.7866 17.3426 37.5856 17.1057 37.4423 16.8169C37.1448 16.2178 37.1071 15.4252 37.1071 14.6604V7.47462H41.8407V3.83586H37.1109V0.37146H33.1146V3.83586H32.3967H30.4806H27.6668V0.37146ZM159.432 3.29265L159.429 3.29268C158.005 3.30347 156.602 3.6327 155.322 4.25624C154.803 4.50217 154.316 4.80719 153.87 5.16459V3.66896H149.855V27.5712H153.87V20.0723C154.317 20.4296 154.804 20.735 155.322 20.9819C156.602 21.6044 158.005 21.9323 159.429 21.9418H159.432C163.926 21.9418 168.508 18.5287 168.508 12.6361V12.6022C168.508 6.72134 163.927 3.29267 159.432 3.29265ZM153.795 12.6022C153.795 8.81599 156.518 6.89756 159.055 6.89756C161.597 6.89756 164.354 8.79026 164.354 12.6022V12.6502C164.344 14.5677 163.658 15.982 162.667 16.9183C161.674 17.8574 160.354 18.3346 159.046 18.3369C156.493 18.3323 153.795 16.4181 153.795 12.6361V12.6022ZM101.92 5.3281C103.276 4.17428 105.206 3.48076 107.2 3.48076H108.313V7.41679H106.77L106.763 7.41649C105.484 7.3653 104.235 7.81005 103.276 8.65768C102.448 9.46512 101.913 10.6393 101.913 12.2748V21.5278H97.9167V20.677L97.9242 20.6619V3.65385H101.92V5.3281ZM134.951 3.6575H130.955V14.2389C130.955 16.5736 131.653 18.4979 132.962 19.8596C134.273 21.2226 136.141 21.9416 138.296 21.9416C140.209 21.9416 141.921 21.3871 143.181 20.4249V21.5352H147.196V3.66879H143.185V13.6067C143.185 15.1936 142.736 16.3551 142.04 17.1064C141.66 17.5026 141.2 17.8136 140.691 18.0186C140.181 18.2241 139.633 18.3185 139.084 18.2957L139.068 18.295L139.051 18.2957C138.512 18.3188 137.974 18.2328 137.469 18.0428C136.966 17.8535 136.506 17.5649 136.116 17.1943C135.422 16.4841 134.951 15.3678 134.951 13.7497V3.6575ZM0.527344 12.4704C0.527344 6.94979 4.95507 3.16085 10.183 3.16085C15.4106 3.16085 19.8537 6.96448 19.8537 12.4704V12.5005C19.8537 18.021 15.411 21.825 10.183 21.825C4.94314 21.825 0.527344 18.0393 0.527344 12.5005V12.4704ZM10.183 6.76574C7.19483 6.76574 4.66657 8.98877 4.66657 12.4704V12.5005C4.66657 15.9884 7.20117 18.239 10.183 18.239C13.1661 18.239 15.7145 15.9871 15.7145 12.5005V12.4704C15.7145 8.99002 13.1725 6.76574 10.183 6.76574ZM52.3852 3.16085C47.1573 3.16085 42.7295 6.94979 42.7295 12.4704V12.5005C42.7295 18.0394 47.1531 21.825 52.3852 21.825C57.6171 21.825 62.056 18.0209 62.056 12.5005V12.4704C62.056 6.96448 57.6128 3.16085 52.3852 3.16085ZM46.8688 12.4704C46.8688 8.98877 49.397 6.76574 52.3852 6.76574C55.3747 6.76574 57.9167 8.99002 57.9167 12.4704V12.5005C57.9167 15.9873 55.372 18.239 52.3852 18.239C49.4034 18.239 46.8688 15.9884 46.8688 12.5005V12.4704ZM109.175 12.587C109.175 7.06596 113.611 3.2775 118.842 3.2775C124.074 3.2775 128.513 7.08123 128.513 12.587V12.6171C128.513 18.1375 124.074 21.9417 118.842 21.9417C113.611 21.9417 109.175 18.1567 109.175 12.6171V12.587ZM118.842 6.88239C115.854 6.88239 113.326 9.10542 113.326 12.587V12.6171C113.326 16.105 115.86 18.3556 118.842 18.3556C121.829 18.3556 124.377 16.1036 124.377 12.6171V12.587C124.377 9.10699 121.832 6.88239 118.842 6.88239ZM93.0964 1.697C92.0344 1.697 91.1735 2.55789 91.1735 3.61986C91.1735 4.68182 92.0344 5.54272 93.0964 5.54272C94.1583 5.54272 95.0193 4.68182 95.0193 3.61986C95.0193 2.55789 94.1583 1.697 93.0964 1.697ZM85.2808 3.2775C80.0529 3.2775 75.6251 7.06644 75.6251 12.587V12.6171C75.6251 18.1561 80.0487 21.9417 85.2808 21.9417C90.5088 21.9417 94.9516 18.1376 94.9516 12.6171V12.587C94.9516 7.08114 90.5084 3.2775 85.2808 3.2775ZM79.7644 12.587C79.7644 9.10542 82.2926 6.88239 85.2808 6.88239C88.2703 6.88239 90.8123 9.10667 90.8123 12.587V12.6171C90.8123 16.1044 88.2784 18.3556 85.2808 18.3556C82.299 18.3556 79.7644 16.105 79.7644 12.6171V12.587ZM90.9505 23.1449C90.9129 26.5818 88.3982 28.7727 85.4318 28.7727C82.4617 28.7727 79.9358 26.5781 79.8981 23.1449L79.8935 22.3732H79.1302H75.7422V23.1524C75.7911 28.6259 80.2143 32.3715 85.4168 32.3715C90.6192 32.3715 95.0237 28.6071 95.0763 23.1524V22.392H90.9505C90.9505 22.392 90.9532 22.9017 90.9505 23.1449Z" fill="#6E7781"/>
</g>
<defs>
<clipPath id="clip0_1745_31330">
<rect width="167.98" height="32" fill="white" transform="translate(0.527344 0.37146)"/>
</clipPath>
</defs>
</svg>
